<svg width="300" height="200" fill="none" xmlns="http://www.w3.org/2000/svg"><path fill="#4C97FF" d="M0 0h300v200H0z"/><path fill-rule="evenodd" clip-rule="evenodd" d="M237.355 116.268c0 59.107-39.247 61.732-94.984 61.732-55.736 0-101.038-40.025-93.335-101.203 4.219-33.513 17.569-71.06 98.826-61.653 55.413 6.415 89.493 56.474 89.493 101.124zm14.62 33.036c-1.402 5.231-6.167 8.202-10.189 7.124-2.962-.794-2.024-3.283-.764-6.628.452-1.199.945-2.508 1.315-3.888.292-1.09.541-2.266.788-3.436.942-4.447 1.864-8.801 5.049-7.947 4.022 1.077 5.202 9.543 3.801 14.775zM44.03 44.194c3.463 1.328 4.74-.765 6.468-5.268.576-1.5 1.443-2.896 2.217-4.14 1.548-2.492 2.718-4.374.409-5.26-3.462-1.33-8.507.647-10.236 5.15-1.728 4.502-2.32 8.188 1.142 9.517z" fill="#000" fill-opacity=".15"/><path d="M135.144 111.5C87 113.224 68.334 133.332 64.5 141c0 3.347 25.5 34 71.35 36.782C179.384 180.423 230 179.5 236 133c-11.5-12.937-45-23.5-100.856-21.5z" fill="#0FBD8C"/><path fill-rule="evenodd" clip-rule="evenodd" d="M112.943 132.73s-23.93 6.337-11.224 14.407c16.131 10.246 76.899 13.054 87.6 4.645 10.702-8.408-13.519-19.052-22.122-19.052h-54.254z" fill="#000" fill-opacity=".1"/><path fill-rule="evenodd" clip-rule="evenodd" d="M211.198 4.78c-11.434 4.784-7.569 18.165-9.116 18.165-5.659 0-10.352 5.081-11.581 8.233-1.37 3.512-1.36 7.194-.325 10.068 2.273 6.312-17.242 3.022-19.175 7.718-.001 4.696 9.558 7.067 25.982 3.808 16.423-3.26 56.957 17.978 57.987-5.099 1.031-23.076-25.207-8.062-25.207-13.774s9.363-4.711 17.296-16.752c7.933-12.04-24.428-17.152-35.861-12.368z" fill="#fff"/><mask id="a" maskUnits="userSpaceOnUse" x="171" y="3" width="84" height="56"><path fill-rule="evenodd" clip-rule="evenodd" d="M211.198 4.78c-11.434 4.784-7.569 18.165-9.116 18.165-5.659 0-10.352 5.081-11.581 8.233-1.37 3.512-1.36 7.194-.325 10.068 2.273 6.312-17.242 3.022-19.175 7.718-.001 4.696 9.558 7.067 25.982 3.808 16.423-3.26 56.957 17.978 57.987-5.099 1.031-23.076-25.207-8.062-25.207-13.774s9.363-4.711 17.296-16.752c7.933-12.04-24.428-17.152-35.861-12.368z" fill="#fff"/></mask><g mask="url(#a)" fill-rule="evenodd" clip-rule="evenodd" fill="#4D97FF"><path d="M252.61 10.59s3.727-3.598-2.996 0c-1.307.699-5.575 8.686-10.277 7.837-8.859-1.599-11.37 8.294-17.627 8.294-1.967 0-12.798-1.618-10.192.662 1.026.898 3.432-.205 6.656 4.12 3.013 4.042 9.016 6.577 14.353 3.581 2.489-1.396 10.379 1.094 15.006 2.474 8.384 2.5 2.081-2.474 2.081-2.474l-12.375-1.877 14.541-13.63.83-8.988zM190.726 30.076s-1.41 10.342 3.47 12.553c4.879 2.21 2.47 2.676-.543 2.209-3.013-.468-6.068-.308-7.03 0-.963.307-9.927-1.084-9.927-1.084s1.942 1.795 4.968 1.084c3.026-.712 9.062-14.762 9.062-14.762zM195.393 25.183s6.288-2.888 10.86-.646c1.319.646.645-1.087-.79-1.773-2.472-1.183-2.982-4.367-2.338-7.866.621-3.376-2.337 3.354-3.715 3.681-1.378.327-4.017 6.604-4.017 6.604z" fill-opacity=".15"/><path d="M174.412 54.997c-6.823 0-4.529-7.288-4.484-7.113 1.624 6.283 23.7 1.74 28.584 1.74s4.128-.371 21.956 2.24c5.292.775 10.183.194 14.528-.902 10.812-2.729 18.243-8.652 20.07-4.827.277.579 4.303 12.786 1.911 14.622-4.914 3.77-41.884.534-51.236-3.269-9.351-3.803-24.505-2.49-31.329-2.49z" fill-opacity=".5"/></g><path fill-rule="evenodd" clip-rule="evenodd" d="M64.696 35.656c-.791.683-6.671-.006-8.982 4.027-2.567 4.482 1.98 7.02-1.591 9.897-1.212.977-1.644 1.303-7.673.791-5.354-.453-13.001 3.54-10.977 5.648 2.024 2.11 14.048 2.138 24.338 1.513 6.505-.396 12.24-1.312 16.157-1.406 11.3-.27 16.492 1.165 16.94-1.622.448-2.788-5.972-10.285-10.825-9.1-4.853 1.184.33-.747.503-3.128.294-4.067-.786-1.891-.231-5.344.703-4.377 1.114-6.163-5.097-7.197-2.145-.357-2.483-5.287-9.942-4.276-7.46 1.011-1.828 9.514-2.62 10.197z" fill="#fff"/><mask id="b" maskUnits="userSpaceOnUse" x="35" y="25" width="58" height="33"><path fill-rule="evenodd" clip-rule="evenodd" d="M64.696 35.656c-.791.683-6.671-.006-8.982 4.027-2.567 4.482 1.98 7.02-1.591 9.897-1.212.977-1.644 1.303-7.673.791-5.354-.453-13.001 3.54-10.977 5.648 2.024 2.11 14.048 2.138 24.338 1.513 6.505-.396 12.24-1.312 16.157-1.406 11.3-.27 16.492 1.165 16.94-1.622.448-2.788-5.972-10.285-10.825-9.1-4.853 1.184.33-.747.503-3.128.294-4.067-.786-1.891-.231-5.344.703-4.377 1.114-6.163-5.097-7.197-2.145-.357-2.483-5.287-9.942-4.276-7.46 1.011-1.828 9.514-2.62 10.197z" fill="#fff"/></mask><g mask="url(#b)" fill-rule="evenodd" clip-rule="evenodd" fill="#4D97FF"><path d="M33.002 56.678s1.479-.744 7.342-1.231c5.863-.488 8.427 1.351 15.842 1.257 7.414-.095 18.046-2.452 24.475-4.543 6.428-2.09 10.56.646 12.685 3.633 2.124 2.988.697 1.235-4.618 3.573-5.316 2.338-11.147-.618-14.596-1.396-3.45-.778 12.231 2.172-16.175 1.83-28.407-.343-24.955-3.123-24.955-3.123z" fill-opacity=".5"/><path d="M54.799 42.312s1.072 3.552 2.333 4.065c1.187.483 2.434.698 5.036-.28 1.508-.565 2.891.214.397 1.636-3.86 2.2-7.148 3.231-13.086 2.277-4.6-.74 5.32-7.698 5.32-7.698zM86.754 33.97c.538.853-3.11-8.233-6.858-4.678-.634.602.143 1.357.279 3.62.116 1.949-3.032 7.464-6.097 5.903-1.547-.788-4.178-.723-3.678.233.4.763 1.838.973 2.23 2.753.291 1.329.37 3.712-2.824 6.407-1.462 1.232 8.175-1.846 10.986-2.547 4.424-1.105 6.94-3.442 9.355-5.012 2.414-1.57-1.906-5.666-1.906-5.666s-2.026-1.865-1.487-1.013zM63.627 31.559s1.695 3.777 4.046 4.598c2.352.82.147 1.346-.963.688-1.11-.659-2.27-.788-2.972-.478-.703.309-2.335-.155-3.58.174-1.245.328 3.469-4.982 3.469-4.982z" fill-opacity=".15"/></g><path fill-rule="evenodd" clip-rule="evenodd" d="M137.546 122.183c23.241-2.982 45.181 4.449 45.157 18.077-.011 5.961-10.508 7.568-25.588 10.442-18.129 3.454-39.991-2.127-46.536-10.49-10.387-13.273 4.234-15.114 26.967-18.029z" fill="#575E75"/><path fill-rule="evenodd" clip-rule="evenodd" d="M175.15 127.899s-17.467 8.288-31.255 3.435c-13.787-4.853-19.727-7.308-19.727-7.308s18.707-2.497 26.404-2.497c15.396 0 24.578 6.37 24.578 6.37z" fill="#231F20" fill-opacity=".1"/><path fill-rule="evenodd" clip-rule="evenodd" d="M160.174 108.826c19.343 1.66 20.534 8.734 11.192 15.212-8.965 6.216-43.852 2.752-54.633-6.044-10.782-8.796 24.519-10.791 43.441-9.168z" fill="#666F87"/><path fill-rule="evenodd" clip-rule="evenodd" d="M163.82 109.323s-2.629 9.221-15.239 8.375c-12.609-.847-22.525-7.632-22.525-7.632s12.657-1.817 22.868-1.753c10.211.064 14.896 1.01 14.896 1.01zM181.116 134.526c1.012 2.391-3.586 6.473-5.625 5.658-2.039-.816-5.554 6.741-13.498 6.594-7.944-.149-22.708 4.741-30.442 1.111-7.733-3.63-23.418-9.611-24.082-13.363-.665-3.751 0 0 0 0s2.732 16.202 37.029 17.19c9.246.267 15.322-1.675 20.963-2.592 15.286-2.487 20.107-5.582 15.655-14.598z" fill="#231F20" fill-opacity=".1"/><path fill-rule="evenodd" clip-rule="evenodd" d="M145.95 87.672c18.967 1.654 24.627 17.645 15.466 24.099-8.79 6.192-24.562 5.545-35.134-3.217s1.115-22.499 19.668-20.882z" fill="#B3BFA6"/><path fill-rule="evenodd" clip-rule="evenodd" d="M160.738 92.77c-2.923 4.642-29.966 1.537-30.687-2.403-.492-2.684 0 0 0 0s8.33-3.837 16.583-2.57c8.252 1.269 13.123 3.546 15.298 6.142" fill="#231F20" fill-opacity=".1"/><path fill-rule="evenodd" clip-rule="evenodd" d="M146.104 76.867c13.886 4.562 27.356-.385 22.292 9.59-3.807 7.498-35.927 5.979-46.594-2.207-10.666-8.185 6.417-13.259 24.302-7.383z" fill="#666F87"/><path fill-rule="evenodd" clip-rule="evenodd" d="M158.156 79.288c-1.773 1.54-13.55 3.632-17.903 1.989-4.354-1.643-9.6-3.45-10.421-6.954 0 0 10.195.306 14.162 2.192 3.967 1.886 14.162 2.773 14.162 2.773z" fill="#231F20" fill-opacity=".1"/><path fill-rule="evenodd" clip-rule="evenodd" d="M145.77 63.075c11.936 1.029 20.026 9.755 14.261 13.774-5.531 3.854-18.953 4.75-25.607-.704-6.653-5.455-.329-14.077 11.346-13.07z" fill="#D0E2D6"/><path fill-rule="evenodd" clip-rule="evenodd" d="M173.262 112.088c1.373.944-3.92 12.74-10.842 13.045-6.923.305-20.441-3.813-23.752-2.365-3.311 1.449-13.545-1.448-14.257-3.966-.711-2.517-7.954-5.534-7.796-5.77 1.498-2.159-.944.944-.944.944s-5.665 3.604 16.994 11.157c24.033 6.141 39.65.657 43.429-5.492 2.832-5.665-2.832-7.553-2.832-7.553z" fill="#231F20" fill-opacity=".1"/><path fill-rule="evenodd" clip-rule="evenodd" d="M163.538 96.85c2.133 2.605-1.556 13.696-18.33 12.002-16.774-1.694-22.059-11.47-20.217-14.361 1.842-2.892 0 0 0 0s-3.73 4.14-2.44 8.75 10.616 12.379 22.587 12.615c11.972.235 20.01-4.56 20.538-11.325.342-4.382-2.138-7.68-2.138-7.68z" fill="#231F20" fill-opacity=".1"/><path fill-rule="evenodd" clip-rule="evenodd" d="M159.425 100.761c1.032.06.728 2.072-.577 1.872-1.305-.201-.566-1.94.577-1.872zM156.137 97.58c.585.963-.949 1.972-1.604.675-.655-1.297.957-1.742 1.604-.675zM139.143 99.468c.584.963-.948 1.972-1.604.675-.655-1.297.957-1.742 1.604-.675zM159.057 97.082c1.013.51 1.321 1.775.571 1.775-.749 0-1.57.193-1.463-.888.107-1.08.502-1.084.892-.887z" fill="#231F20" fill-opacity=".1"/><path fill-rule="evenodd" clip-rule="evenodd" d="M146.208 72.437c1.032.06.728 2.073-.578 1.872-1.305-.2-.565-1.939.578-1.872zM136.767 66.772c1.032.06.727 2.073-.578 1.873-1.305-.201-.565-1.94.578-1.873zM152.361 69.256c.584.963-.949 1.972-1.604.675-.656-1.296.957-1.741 1.604-.675z" fill="#fff"/><path fill-rule="evenodd" clip-rule="evenodd" d="M136.496 99.004c.971.925 1.136 2.369.548 3.211-.633.908-.788.39-1.403-1.605-.513-1.664.482-1.962.855-1.606zM169.405 81.686c-.443 1.158-1.21 1.058-2.584 1.76-1.374.7-.671 4.107-2.405 4.207-1.734.1-14.576 2.204-16.544.45-1.969-1.752-6.983-2.654-9.233-2.253-2.25.4-10.686-.64-11.858-3.4-1.171-2.762-9.373-2.905-7.732-5.213 1.64-2.307 0 0 0 0s-2.583 3.134 3.489 7.25c6.072 4.118 18.585 7.139 27.631 6.805 9.044-.333 15.273-1.09 17.572-4.042 2.299-2.953 1.664-5.564 1.664-5.564z" fill="#231F20" fill-opacity=".1"/><path fill-rule="evenodd" clip-rule="evenodd" d="M161.184 71.01c.957 1.795-.23 4.617-3.655 5.868-3.424 1.25-11.595-1.14-14.478-.568-2.882.572-11.46-5.72-10.422-7.651-2.044 2.014 0 0 0 0s-4.478 7.19 9.117 10.593c9.782 2.449 19.174-1.805 19.954-4.098.737-2.166-.516-4.143-.516-4.143zM155.121 66.185s-4.058 3.013-10.61 2.388c-6.551-.625-9.014-3.93-9.014-3.93s3.213-2.064 9.429-1.574c6.215.492 11.342 3.77 11.342 3.77" fill="#231F20" fill-opacity=".1"/><path fill-rule="evenodd" clip-rule="evenodd" d="M141.22 55.741c8.409-.927 17.632 0 16.894 6.989-.561 5.311-17.258 5.39-23.44.213-6.182-5.176-2.016-6.257 6.546-7.202z" fill="#666F87"/><path fill-rule="evenodd" clip-rule="evenodd" d="M152.491 56.428s-4.899 3.29-9.432 2.724c-4.534-.567-5.674-2.724-5.674-2.724s5.116-.999 8.452-.987c3.336.012 6.654.987 6.654.987z" fill="#231F20" fill-opacity=".1"/><path fill-rule="evenodd" clip-rule="evenodd" d="M143.217 49.88c6.11-.653 15.877 1.883 12.274 4.918-1.556 1.311-9.763 3.721-15.094 1.84-5.122-1.809-3.401-6.093 2.82-6.758z" fill="#D0E2D6"/><path fill-rule="evenodd" clip-rule="evenodd" d="M157.885 60.092c.217 1.99-1.424 3.544-3.258 3.504-1.833-.04-3.977-.797-4.808 0-.83.798-.968 1.877-2.871 1.438-1.902-.44-5.188-2.876-8.163-2.755-2.975.12-6.813-3.8-6.607-4.596.208-.795 0 0 0 0s-.645.664-.404 1.366c.242.703 1.917 5.41 11.094 7.148 9.177 1.739 13.844-.894 14.704-2.347.861-1.452.591-3.014.313-3.758zM150.603 50.538s-1.812 1.473-4.345 1.05c-2.533-.422-5.096-1.62-5.096-1.62s2.547-.327 5.096-.127 4.345.697 4.345.697zM156.239 53.97c-1.315.869-3.352 2.171-6.433 2.372-3.081.2-6.81-.049-8.735-.571-2.452-.665-2.93-2.49-3.478-2.184-1.191 1.972 2.882 4.124 8.712 3.685 7.402-.559 10.288-2.032 9.934-3.302z" fill="#231F20" fill-opacity=".1"/><path fill-rule="evenodd" clip-rule="evenodd" d="M144.561 46.281c5.914-.768 10.157-.075 6.669 3.497-1.506 1.543-3.669 2.956-8.829.74-4.958-2.127-3.862-3.455 2.16-4.237z" fill="#B3BFA6"/><path fill-rule="evenodd" clip-rule="evenodd" d="M152.459 47.888c-1.222 1.204-3.317 3.24-5.886 2.657-2.568-.583-6.421-.96-7.029-1.49-.608-.53 0 0 0 0s3.209 2.608 7.401 2.61c3.768 0 5.834-3.1 5.514-3.777z" fill="#231F20" fill-opacity=".1"/><path fill-rule="evenodd" clip-rule="evenodd" d="M174.026 149.612c-.858-2.096-2.138-8.032.822-10.12 2.96-2.088 4.111 4.498 4.111 4.498s-.822-15.26 2.631-15.26c3.454 0 2.303 12.208 2.303 12.208s2.795-4.658 4.933-3.052c2.138 1.606.869 7.481 0 11.726-.493 2.409-13.485 3.212-14.8 0zM117.82 157.074c-.804-1.571-1.583-6.203.609-7.815 2.192-1.613 3.044 3.473 3.044 3.473s.481-11.785 3.038-11.785 3.067 9.428 3.067 9.428.493-5.04 2.944-5.04c2.452 0 2.725 4.441 2.725 4.441s.817-13.046 3.814-13.046 3.269 13.22 3.269 13.22 1.635-7.113 3.269-6.281c1.635.833 1.868 10.161.545 13.497-1.362 3.434-24.519 3.434-26.324-.092z" fill="#0A8E69"/></svg>