<svg width="300" height="200" viewBox="0 0 300 200" fill="none" xmlns="http://www.w3.org/2000/svg">
<g clip-path="url(#clip0)">
<rect width="300" height="200" fill="#4C97FF"/>
<path fill-rule="evenodd" clip-rule="evenodd" d="M212.786 88.3639C212.786 131.395 184.214 133.306 143.637 133.306C103.06 133.306 70.0794 104.167 75.6868 59.6284C78.7584 35.2308 88.4774 7.89594 147.634 14.7443C187.976 19.4145 212.786 55.8583 212.786 88.3639ZM223.43 112.415C222.409 116.223 218.941 118.386 216.012 117.601C213.856 117.024 214.539 115.212 215.456 112.776C215.785 111.903 216.144 110.95 216.413 109.945C216.626 109.152 216.807 108.296 216.987 107.444C217.673 104.206 218.344 101.037 220.662 101.658C223.591 102.443 224.45 108.606 223.43 112.415ZM72.0428 35.8927C74.5635 36.8603 75.493 35.3363 76.7514 32.0582C77.1705 30.9662 77.8023 29.9496 78.3653 29.0437C79.4926 27.2299 80.3443 25.8594 78.6633 25.2141C76.1425 24.2465 72.4698 25.6854 71.2115 28.9636C69.9531 32.2417 69.5221 34.925 72.0428 35.8927Z" fill="white" fill-opacity="0.2"/>
<g filter="url(#filter0_d)">
<path d="M128.766 74.8882C119.558 70.0838 110.756 71.5632 105.026 73.8611C104.616 74.0011 104.208 74.1496 103.804 74.3067L103.813 74.3791C103.758 74.4044 103.702 74.4298 103.647 74.4552L103.832 74.513C104.797 81.2841 109.544 87.5894 117.301 91.1763L117.308 91.1792C125.215 94.8317 132.194 98.0555 139.441 95.5173C138.793 103.173 138.586 110.853 138.821 118.527C138.833 120.82 139.106 123.107 139.636 125.354C139.865 126.029 140.388 126.599 141.093 126.944C141.798 127.29 142.629 127.382 143.412 127.203C144.183 126.998 144.834 126.542 145.23 125.931C145.626 125.319 145.736 124.598 145.537 123.918C145.437 123.579 145.359 123.241 145.296 122.896C145.265 122.729 145.241 122.472 145.235 122.366L145.241 122.395C145.248 122.435 145.256 122.475 145.263 122.515C145.271 122.595 145.282 122.701 145.296 122.84C145.296 122.731 145.281 122.623 145.263 122.515C145.238 122.292 145.231 122.282 145.235 122.366C145.22 122.286 145.206 122.206 145.197 122.125C145.076 121.115 145.005 120.098 144.956 119.088C144.828 116.574 144.821 114.06 144.857 111.552C144.927 106.85 145.147 102.149 145.452 97.4537L145.457 97.3701C145.481 96.9885 145.506 96.6062 145.531 96.2232C147.977 97.3495 150.574 98.1505 153.252 98.5996C157.297 99.2777 161.441 99.139 165.428 98.1921L165.452 98.1865C174.97 95.9708 183.24 94.0459 185.225 86.4033C183.702 85.1311 181.997 84.0245 180.156 83.1045C177.514 81.676 174.093 80.4819 169.543 80.1069C167.937 79.9548 166.3 79.9245 164.651 80.0246C160.909 80.1869 157.621 81.0307 154.768 82.2711C150.42 84.0661 146.867 86.7837 144.389 90.0376C143.878 90.636 143.412 91.2281 142.991 91.8031C142.859 91.7875 142.725 91.7793 142.59 91.7787C142.307 91.7853 142.029 91.825 141.762 91.8952C141.634 90.9086 141.426 89.9313 141.141 88.9702C140.141 84.1703 137.142 79.2579 128.766 74.8882Z" fill="#0B8E69"/>
</g>
<path d="M167.121 180.113C166.683 183.258 156.181 191.242 130.904 191.242C105.628 191.242 93.4956 184.951 93.4956 178.661C93.4956 172.371 105.628 170.573 130.904 170.573C150.705 170.573 167.596 176.702 167.121 180.113Z" fill="black" fill-opacity="0.15"/>
<path d="M105.346 137.475H178.971C178.971 137.475 170.223 172.887 167.307 180.084C151.253 190.338 126.121 187.282 117.373 180.084C113.729 170.008 105.346 137.475 105.346 137.475Z" fill="#CB722A"/>
<path fill-rule="evenodd" clip-rule="evenodd" d="M177.219 144.465C178.279 140.277 178.971 137.475 178.971 137.475H105.346C105.346 137.475 106.966 143.764 109.092 151.668C116.38 152.753 126.216 153.085 137.238 153.085C155.926 153.085 171.764 149.467 177.219 144.465Z" fill="black" fill-opacity="0.15"/>
<path d="M184.168 125.286C184.168 118.408 165.36 112.832 142.158 112.832C118.957 112.832 101.015 118.673 101.015 125.551C101.015 131.678 101.015 131.612 101.015 137.74C101.015 144.618 118.957 150.194 142.158 150.194C165.36 150.194 184.168 144.618 184.168 137.74C184.168 131.612 184.168 131.413 184.168 125.286Z" fill="#CB722A"/>
<path fill-rule="evenodd" clip-rule="evenodd" d="M180.347 50.8663C178.073 54.1788 173.888 55.8869 172.93 55.7692C171.666 55.614 170.518 49.6256 171.217 43.9323C171.916 38.2391 173.736 34.4144 175 34.5697C175.907 34.6811 179.362 38.2095 180.982 42.2974L215.181 45.0542L212.102 36.871C211.164 34.6621 217.817 25.6475 230.649 20.2008C243.48 14.7542 254.287 16.928 255.225 19.1369L257.831 24.506C258.925 22.5842 260.308 20.6436 261.878 19.0707C263.536 17.4098 265.69 15.8657 268.222 15.4759C270.964 15.0538 273.599 16.0628 275.824 18.4387C277.938 20.6953 278.703 23.67 278.801 26.6247C278.9 29.5853 278.343 32.8174 277.509 35.9674C275.959 41.8171 273.303 47.9007 271.324 52.3053L273.436 56.658C274.374 58.8669 266.514 69.27 253.682 74.7167C240.851 80.1633 227.907 78.5909 226.969 76.382L222.148 63.5692C208.56 57.3216 189.747 53.6697 180.347 50.8663ZM260.908 30.8461L268.194 45.8576C269.701 42.3141 271.229 38.3618 272.234 34.5697C273.001 31.6721 273.421 29.0181 273.347 26.8063C273.273 24.5886 272.718 23.1049 271.842 22.1694C270.636 20.8826 269.729 20.7656 269.052 20.8697C268.166 21.0061 267.024 21.6405 265.741 22.9257C263.43 25.2412 261.6 28.7168 260.908 30.8461Z" fill="#0B8E69"/>
<path d="M250.543 18.867C250.825 19.5306 241.25 25.4629 233.421 29.1376C227.241 32.0386 214.841 34.6282 214.625 34.1175C214.408 33.6068 221.904 25.9556 230.267 22.4061C239.425 18.5185 250.262 18.2035 250.543 18.867Z" fill="black" fill-opacity="0.15"/>
<path d="M176.225 46.0392C175.594 52.0357 174.315 56.2821 171.998 56.0385C169.68 55.7949 167.487 51.3814 168.118 45.3848C168.748 39.3883 171.963 34.0794 174.28 34.323C176.598 34.5666 176.855 40.0426 176.225 46.0392Z" fill="#097959"/>
<path d="M247.154 76.926C236.777 79.6072 227.747 78.2134 226.969 76.382L222.148 63.5692C208.917 57.4857 191.09 54.1191 181.5 51.2415L180.5 50.7415C180.69 49.9654 181.432 47.4918 181.5 44.7415C181.685 45.5561 182.5 47.2415 185.5 48.7415C187.069 49.4089 222.59 60.5063 224.418 59.5395C226.246 58.5727 226.505 56.9385 226.614 53.6055C228.827 58.1439 235.59 72.0299 237.722 73.3727C240.438 75.083 242.645 76.6652 247.154 76.926Z" fill="black" fill-opacity="0.1"/>
<path d="M219.268 36.5281C216.752 36.5484 214.645 36.6334 211.785 36.1805L215.394 45.1277L224.038 46.078C222.448 42.8947 220.514 39.2381 219.268 36.5281Z" fill="black" fill-opacity="0.1"/>
<path d="M253.688 22.8074L259.139 33.9222" stroke="white" stroke-opacity="0.5" stroke-width="1.73236" stroke-linecap="round"/>
<line x1="260.652" y1="37.3365" x2="261.174" y2="38.4726" stroke="white" stroke-opacity="0.5" stroke-width="1.73236" stroke-linecap="round"/>
<path fill-rule="evenodd" clip-rule="evenodd" d="M271.443 52.0383C273.409 47.6567 275.99 41.6998 277.509 35.9674C278.343 32.8173 278.9 29.5852 278.801 26.6246C278.703 23.67 277.938 20.6953 275.824 18.4387C273.599 16.0627 270.964 15.0538 268.222 15.4759C265.689 15.8657 263.536 17.4098 261.878 19.0706C260.356 20.5962 259.008 22.4676 257.93 24.3321L260.989 30.6043C261.736 28.4611 263.515 25.1555 265.741 22.9257C267.024 21.6405 268.166 21.0061 269.052 20.8697C269.729 20.7655 270.636 20.8825 271.842 22.1694C272.718 23.1049 273.273 24.5886 273.347 26.8063C273.421 29.0181 273.001 31.6721 272.234 34.5696C271.253 38.2702 269.774 42.1232 268.303 45.6L271.443 52.0383Z" fill="black" fill-opacity="0.1"/>
<path d="M139.825 59.2638C146.916 42.8604 160.345 42.3602 163.817 41.8422C165.389 41.6078 169.751 40.6248 163.954 45.7395C147.837 59.9596 151.643 78.8808 145.498 75.3243C141.259 72.871 147.95 63.2073 145.979 61.6503C144.845 60.7545 144.507 60.0758 141.579 63.755C140.487 64.2326 138.068 63.33 139.825 59.2638Z" fill="white" fill-opacity="0.5"/>
<path d="M160.027 66.4992C160.14 67.7919 159.359 68.9162 158.283 69.0104C157.207 69.1045 156.243 68.1329 156.13 66.8401C156.017 65.5474 157.734 61.098 158.81 61.0039C159.886 60.9097 159.914 65.2064 160.027 66.4992Z" fill="white" fill-opacity="0.5"/>
<path d="M175.506 125.392C175.506 128.856 164.694 133.62 140.633 133.62C116.573 133.62 107.944 128.423 107.944 125.825C107.944 124.525 116.573 118.029 140.633 118.029C159.482 118.029 175.506 122.793 175.506 125.392Z" fill="black" fill-opacity="0.25"/>
<path d="M139.339 94.4467C138.622 102.441 138.385 110.462 138.631 118.478C138.642 120.771 138.915 123.058 139.446 125.305C139.675 125.979 140.197 126.55 140.902 126.895C141.607 127.24 142.439 127.333 143.221 127.153C143.993 126.948 144.644 126.493 145.04 125.881C145.435 125.27 145.545 124.549 145.346 123.869C145.247 123.53 145.169 123.191 145.105 122.846C145.041 122.501 145.006 121.768 145.105 122.791C145.105 122.55 145.034 122.316 145.006 122.076C144.886 121.065 144.815 120.049 144.765 119.038C144.638 116.524 144.631 114.01 144.666 111.502C144.737 106.801 144.956 102.1 145.261 97.4043C145.325 96.4061 145.389 95.4018 145.466 94.3974C145.463 93.6908 145.138 93.0141 144.564 92.5144C143.99 92.0148 143.212 91.7326 142.399 91.7294C141.593 91.7481 140.826 92.0354 140.257 92.5319C139.687 93.0285 139.359 93.6963 139.339 94.3974V94.4467Z" fill="#0DA57A"/>
<path d="M152 123.647C152 126.603 148.194 129 143.5 129C138.806 129 135 126.603 135 123.647C135 120.691 141.356 116 146.05 116C150.744 116 152 120.691 152 123.647Z" fill="#98561F"/>
<path d="M130 122.647C130 125.603 133.806 128 138.5 128C143.194 128 147 125.603 147 122.647C147 119.691 140.644 115 135.95 115C131.256 115 130 119.691 130 122.647Z" fill="#98561F"/>
<path d="M159.247 80.733C150.778 82.7003 144.444 87.8731 141.725 94.2005C145.159 96.3917 149.017 97.8722 153.062 98.5503C157.106 99.2284 161.25 99.0897 165.238 98.1428C174.766 95.9248 183.047 94.003 185.034 86.3539C178.552 80.9381 168.767 78.5226 159.247 80.733Z" fill="#0DA57A"/>
<path d="M128.052 74.9274C124.236 73.1991 120.103 72.2486 115.903 72.1334C111.702 72.0182 107.521 72.7408 103.613 74.2573C104.51 81.1064 109.274 87.5036 117.111 91.1269C125.916 95.1943 133.57 98.7319 141.724 94.3761C141.796 86.5842 136.873 78.9948 128.052 74.9274Z" fill="#0DA57A"/>
<path d="M127.277 83.5007C123.136 81.2366 110.386 76.5713 103.457 74.4058C109.087 71.8073 118.593 69.6303 128.576 74.8389C138.537 80.036 140.893 86.0006 141.326 91.6308C138.439 89.321 130.987 85.5299 127.277 83.5007Z" fill="#0B8E69"/>
<path d="M165.822 85.6661C155.428 87.3985 149.364 89.5639 142.509 92.1591C146.085 87.0936 153.229 80.4553 164.479 79.9745C175.704 79.4948 181.413 83.5007 184.878 86.5323C181.222 85.9756 169.993 84.9708 165.822 85.6661Z" fill="#0B8E69"/>
</g>
<defs>
<filter id="filter0_d" x="86.3236" y="50.0541" width="116.225" height="90.2307" filterUnits="userSpaceOnUse" color-interpolation-filters="sRGB">
<feFlood flood-opacity="0" result="BackgroundImageFix"/>
<feColorMatrix in="SourceAlpha" type="matrix" values="0 0 0 0 0 0 0 0 0 0 0 0 0 0 0 0 0 0 127 0"/>
<feOffset dy="-4.3309"/>
<feGaussianBlur stdDeviation="8.66181"/>
<feColorMatrix type="matrix" values="0 0 0 0 1 0 0 0 0 1 0 0 0 0 1 0 0 0 0.4 0"/>
<feBlend mode="normal" in2="BackgroundImageFix" result="effect1_dropShadow"/>
<feBlend mode="normal" in="SourceGraphic" in2="effect1_dropShadow" result="shape"/>
</filter>
<clipPath id="clip0">
<rect width="300" height="200" fill="white"/>
</clipPath>
</defs>
</svg>
