<svg width="453" height="506" viewBox="0 0 453 506" fill="none" xmlns="http://www.w3.org/2000/svg">
<g clip-path="url(#clip0_365_12169)">
<path d="M413 231C400 335 326.591 426 220 426C113.409 426 39.9998 342 26.9999 231C13.9999 120 114 6.00013 220 36.0001C326 66.0001 426 127 413 231Z" fill="white" fill-opacity="0.25"/>
<path d="M385.028 67.2482C390.83 53.7819 384.773 34.3669 365.643 21.2533C346.514 8.13977 326.768 8.69335 315.753 19.7597C304.737 30.8261 313.767 56.1369 335.138 65.7546C356.508 75.3723 379.227 80.7146 385.028 67.2482Z" fill="white" fill-opacity="0.25"/>
<rect x="118" y="153" width="55" height="26" rx="10" fill="#5CB1D6"/>
<path d="M118 165H173V169C173 174.523 168.523 179 163 179H128C122.477 179 118 174.523 118 169V165Z" fill="#47A8D1"/>
<rect x="143" y="140" width="9" height="13" rx="3" fill="white"/>
<path d="M163.436 142.515H132.47C129.763 142.515 127.923 139.887 129.404 137.62C132.551 132.805 138.487 127.411 147.884 127.02C157.53 126.618 163.529 132.435 166.609 137.654C167.964 139.951 166.102 142.515 163.436 142.515Z" fill="#FF661A"/>
<circle cx="153.274" cy="137.125" r="2.69477" fill="white"/>
<circle cx="162.706" cy="138.473" r="2.69477" fill="white"/>
<circle cx="134.411" cy="138.473" r="2.69477" fill="white"/>
<circle cx="142.495" cy="135.778" r="2.69477" fill="white"/>
<mask id="mask0_365_12169" style="mask-type:alpha" maskUnits="userSpaceOnUse" x="128" y="127" width="40" height="16">
<path d="M163.436 142.515H132.47C129.763 142.515 127.923 139.887 129.404 137.62C132.551 132.805 138.487 127.411 147.884 127.02C157.53 126.618 163.529 132.435 166.609 137.654C167.964 139.951 166.102 142.515 163.436 142.515Z" fill="#FF661A"/>
</mask>
<g mask="url(#mask0_365_12169)">
<circle cx="146.537" cy="129.041" r="2.69477" fill="white"/>
<circle cx="135.758" cy="130.388" r="2.69477" fill="white"/>
<circle cx="155.969" cy="129.041" r="2.69477" fill="white"/>
</g>
<rect x="130" y="152" width="5" height="6" rx="2.5" fill="white"/>
<path d="M136.945 153.161H128.47C125.763 153.161 124.005 150.479 126.02 148.67C127.582 147.268 129.758 146.129 132.639 146.009C135.687 145.882 137.947 147.101 139.524 148.655C141.424 150.527 139.611 153.161 136.945 153.161Z" fill="#FF661A"/>
<rect x="158.75" y="154.5" width="6.25" height="7.5" rx="3" fill="white"/>
<path d="M168.764 155.951H155.47C152.763 155.951 150.977 153.298 152.804 151.3C154.787 149.132 157.806 147.188 162.049 147.011C166.483 146.827 169.581 148.92 171.556 151.301C173.258 153.354 171.431 155.951 168.764 155.951Z" fill="#FF661A"/>
<path d="M317.217 334.019C317.217 334.019 322.368 337.044 322.234 334.908C322.234 334.908 322.209 333.873 321.527 332.851L321.905 332.681L318.617 330.369C318.617 330.369 318.995 328.251 320.285 328.622C321.022 328.835 321.107 328.105 321.04 327.436C322.794 327.04 322.678 323.389 322.678 323.389L316.401 326.395L314.301 332.62L317.205 334.013L317.217 334.019Z" fill="#E0B585"/>
<path d="M324.121 316.124L325.472 321.472C325.472 321.472 325.448 327.004 323.835 328.403C322.221 329.803 324.291 335.37 322.24 334.914C318.416 334.062 321.466 327.74 319.67 326.426C317.874 325.111 315.859 332.431 315.859 332.431C315.859 332.431 321.192 338.218 319.488 339.179C317.783 340.141 313.46 335.066 312.937 332.845C312.377 330.448 313.777 326.28 315.348 323.304C316.919 320.328 317.174 313.112 317.174 313.112L319.116 314.025L324.121 316.124Z" fill="#FADBBD"/>
<path d="M387.895 429.948C387.895 429.948 404.936 419.196 415.803 429.844C426.67 440.499 433.154 440.146 426.768 443.651C422.482 446 400.357 442.854 390.068 438.497C386.434 436.957 384.778 432.789 387.895 429.948Z" fill="#59C059"/>
<path d="M386.263 433.72C386.263 433.72 385.758 436.507 390.062 438.497C394.007 440.316 399.243 441.4 399.243 441.4C399.243 441.4 416.241 446.268 422.183 445.982C428.125 445.696 429.422 444.284 429.708 443.608C429.994 442.933 429.16 440.858 429.16 440.858C429.16 440.858 426.938 445.647 417.093 443.499C407.249 441.351 398.512 438.594 394.579 437.846C387.225 436.446 386.263 433.72 386.263 433.72Z" fill="#D9E3F2"/>
<path d="M395.907 429.57C395.907 429.57 399.06 431.767 400.077 430.927C401.094 430.088 400.077 427.806 400.077 427.806L395.907 429.576V429.57Z" fill="#0DA57A"/>
<path d="M322.91 427.623C322.91 427.623 325.972 435.57 320.121 438.357C314.271 441.144 308.426 437.846 295.958 439.963C283.489 442.081 277.444 440.377 281.017 434.311C284.591 428.238 299.763 428.177 301.528 422.634C303.288 417.09 322.91 427.623 322.91 427.623Z" fill="#59C059"/>
<path d="M280.019 437.615C280.019 437.615 279.952 440.225 284.999 440.724C291.142 441.339 297.9 439.477 299.678 439.544C301.455 439.611 316.28 440.286 319.172 439.008C322.064 437.73 322.003 437 322.003 437C322.003 437 310.466 438.339 301.303 437.451C292.141 436.562 290.211 440.87 280.019 437.609V437.615Z" fill="#D9E3F2"/>
<path d="M307.799 426.552C307.799 426.552 305.114 428.031 306.941 429.017C308.767 430.003 312.968 428.122 312.968 428.122L307.799 426.552Z" fill="#0DA57A"/>
<path d="M319.08 271.089C319.08 271.089 311.294 285.553 310.91 290.245C310.526 294.936 311.671 313.258 312.615 316.227C313.558 319.196 326.453 318.15 327.592 313.915C328.73 309.68 327.464 294.662 328.413 291.577C329.363 288.492 334.976 278.397 334.976 278.397L319.074 271.095L319.08 271.089Z" fill="#E5F0FF"/>
<path d="M383.413 298.672C383.413 298.672 398.475 328.488 405.398 374.277C412.32 420.066 417.288 424.49 414.779 427.051C412.661 429.224 404.935 426.857 401.416 427.471C396.661 428.305 392.747 432.473 387.499 431.554C378.372 429.948 365.472 341.333 360.388 340.676C355.305 340.019 348.084 365.71 340.65 378.889C333.217 392.069 331.701 432.193 323.05 432.175C319.275 432.169 314.818 428.323 310.009 427.039C303.793 425.378 297.571 426.187 297.571 426.187C297.571 426.187 309.455 377.326 310.861 367.924C312.268 358.523 332.705 291.048 339.439 288.018C346.172 284.987 383.42 298.672 383.42 298.672H383.413Z" fill="#3373CC"/>
<path d="M334.982 245.551C334.982 245.551 348.717 230.4 378.72 245.551C408.722 260.703 408.162 272.513 408.162 272.513L334.982 245.551Z" fill="#FF8C1A"/>
<path d="M360.096 236.479C360.096 236.479 357.594 243.349 357.46 246.385C357.259 251.052 371.755 258.165 375.681 250.03C379.316 242.491 382.281 236.753 379.413 238.049C376.546 239.345 360.096 236.485 360.096 236.485V236.479Z" fill="#E0B585"/>
<path d="M396.576 212.206C396.485 212.048 396.99 220.561 398.883 229.213C399.931 233.99 403.322 234.909 402.226 236.819C401.13 238.73 397.848 237.373 396.88 239.576C395.912 241.779 393.075 236.783 392.028 238.712C391.17 240.3 389.587 240.385 388.582 241.182C387.578 241.979 383.639 241.067 383.639 241.067L396.576 212.218V212.206Z" fill="#E64D00"/>
<path d="M357.509 199.221C357.509 199.221 353.07 205.141 352.102 209.796C351.134 214.451 348.218 216.97 347.524 220.074C346.83 223.177 341.667 221.753 341.953 223.651C342.221 225.404 345.338 227.911 346.866 227.728C348.565 227.528 348.188 227.947 347.847 228.793C347.378 229.974 347.08 230.74 348.997 231.008C350.915 231.276 351.061 231.258 351.627 232.006C352.194 232.754 351.347 232.761 352.815 234.769C354.282 236.777 354.86 235.085 356.48 235.426C358.099 235.767 361.782 237.136 361.782 237.136L357.515 199.208L357.509 199.221Z" fill="#E64D00"/>
<path d="M393.447 224.589C393.447 224.589 400.637 222.952 396.692 231.471C392.746 239.989 389.124 234.799 389.124 234.799C389.124 234.799 389.343 230.759 389.94 229.39C390.469 228.179 393.441 224.589 393.441 224.589H393.447Z" fill="#FADBBD"/>
<path d="M358.099 235.779C359.426 237.586 360.309 238.499 360.93 239.028C362.817 240.628 366.61 243.653 372.102 244.505C379.767 245.685 390.695 237.714 391.639 232.761C391.931 231.227 392.6 229.505 392.99 228.574C394.549 225.72 395.669 222.562 396.199 219.283C398.427 205.531 391.87 193.118 379.31 191.085C366.75 189.053 356.601 198.758 354.373 212.51C352.894 221.625 353.369 229.347 358.093 235.779H358.099Z" fill="#FADBBD"/>
<path d="M367.528 223.21C367.699 222.346 367.266 221.532 366.56 221.393C365.854 221.253 365.143 221.84 364.972 222.703C364.8 223.567 365.234 224.38 365.94 224.52C366.645 224.66 367.356 224.073 367.528 223.21Z" fill="#4D97FF"/>
<path d="M382.438 226.161C382.609 225.297 382.176 224.484 381.47 224.344C380.764 224.204 380.053 224.791 379.882 225.655C379.711 226.518 380.144 227.332 380.85 227.472C381.556 227.611 382.267 227.025 382.438 226.161Z" fill="#4D97FF"/>
<path d="M374.799 224.479C374.799 224.479 374.007 225.952 374.458 227.187C374.908 228.422 377.885 229.919 373.039 232.408" stroke="#E0B585" stroke-width="0.87" stroke-miterlimit="10" stroke-linecap="round"/>
<path d="M370.001 218.242C370.117 218.388 370.032 218.644 369.879 218.613C368.777 218.382 365.234 219.252 363.749 218.753C362.263 218.254 367.359 214.768 369.995 218.242H370.001Z" fill="#E64D00"/>
<path d="M380.369 219.952C380.217 220.061 380.223 220.329 380.375 220.341C381.501 220.439 384.338 222.075 386.201 222.252C387.803 222.404 383.906 217.39 380.369 219.952Z" fill="#E64D00"/>
<path d="M373.155 236.777C372.151 236.655 368.814 233.783 367.231 234.556C366.556 234.884 370.154 237.988 372.632 238.322C375.116 238.651 378.032 237.86 377.575 237.215C376.918 236.296 374.348 236.923 373.155 236.777Z" fill="white"/>
<path d="M354.866 215.827C354.866 215.827 348.559 212.005 349.612 221.333C350.665 230.661 355.736 226.877 355.736 226.877C355.736 226.877 356.808 222.976 356.668 221.485C356.546 220.171 354.86 215.827 354.86 215.827H354.866Z" fill="#FADBBD"/>
<path d="M378.945 199.349C378.945 199.349 377.977 200.949 374.854 201.874C371.73 202.799 372.437 203.809 370.86 205.154C369.283 206.498 368.327 206.772 365.855 207.813C363.384 208.853 362.002 210.825 361.795 211.969C361.588 213.113 357.46 216.599 354.866 215.826C353.29 215.358 353.168 212.364 354.215 209.632C354.921 207.794 353.959 205.506 354.939 203.943C357.429 199.951 357.198 200 358.038 197.779C358.878 195.558 361.527 195.381 363.511 193.258C365.935 190.665 366.982 190.258 369.009 190.173C371.036 190.093 372.759 191.195 374.129 190.154C375.499 189.114 379.31 191.085 379.31 191.085L378.939 199.349H378.945Z" fill="#E64D00"/>
<path d="M360.388 213.727C360.388 213.727 356.967 216.204 357.637 219.55C358.306 222.897 360.595 222.13 359.451 222.514C358.306 222.897 356.108 223.311 356.224 220.926C356.309 219.088 355.171 220.487 355.7 222.045C356.157 223.402 355.232 226.031 355.232 226.031C355.232 226.031 354.787 224.266 354.538 222.994C354.288 221.723 354.739 216.015 353.716 214.476C352.693 212.936 360.382 213.727 360.382 213.727H360.388Z" fill="#E64D00"/>
<path d="M378.945 199.348C378.945 199.348 376.442 210.222 369.8 211.975C363.158 213.727 364.266 210.064 364.266 210.064C364.266 210.064 368.917 211.634 370.531 208.567C371.432 206.857 370.86 205.153 370.86 205.153L369.904 202.464L378.945 199.348Z" fill="#E64D00"/>
<path d="M377.557 203.225C377.557 203.225 384.047 206.839 382.823 211.543C381.599 216.246 384.862 212.851 384.771 210.186C384.68 207.52 385.794 210.557 387.541 215.218C389.289 219.879 389.892 217.173 391 221C392.108 224.827 391.608 225.958 391.614 227.479C391.62 229 393.995 225.453 394.817 224.467C395.638 223.481 397.051 220.396 397.185 217.506C397.319 214.615 397.234 214.116 397.447 212.358C397.66 210.599 398.147 208.792 396.838 206.243C395.529 203.693 393.587 202.202 394.104 201.064C394.622 199.927 390.774 197.115 390.774 197.115C390.774 197.115 389.849 193.927 386.932 193.592C384.016 193.257 382.342 189.661 379.316 191.085C376.296 192.503 377.557 203.231 377.557 203.231V203.225Z" fill="#E64D00"/>
<path d="M350.215 214.433C350.215 214.433 361.63 198.612 377.411 201.649C393.191 204.685 397.574 222.429 397.574 222.429C397.574 222.429 399.529 207.222 396.18 200.426C392.832 193.629 393.97 188.451 383.529 186.357C373.088 184.258 369.411 184.41 365.892 188.116C362.379 191.822 348.638 205.963 350.215 214.439V214.433Z" fill="#2E8EB8"/>
<path d="M350.215 214.433C350.215 214.433 348.784 214.658 349.143 210.24C349.503 205.823 351.682 204.788 352.431 203.784C353.18 202.78 363.043 191.809 377.91 194.462C392.777 197.115 399.109 212.62 398.792 215.62C398.469 218.619 398.049 223.974 397.574 222.429C397.1 220.883 389.209 202.78 377.411 201.649C365.618 200.517 353.667 209.656 350.215 214.433Z" fill="#5CB1D6"/>
<path d="M391.261 233.576C391.261 233.576 392.534 228.161 393.13 226.846C393.727 225.532 392.954 223.737 392.954 223.737C392.954 223.737 390.798 227.729 390.914 229.566C391.03 231.404 391.389 229.384 391.389 229.384C391.389 229.384 390.738 233.406 391.267 233.57L391.261 233.576Z" fill="#E64D00"/>
<path d="M357.977 243.354C357.977 243.354 363.706 258.427 376.211 248.928L383.645 261.402L347.743 248.155L357.977 243.354Z" fill="#FF8C1A"/>
<path d="M405.142 265.345C405.142 265.345 415.747 277.625 416.423 284.458C417.099 291.291 409.775 302.804 397.873 300.607C393.593 299.816 390.019 294.066 390.019 294.066C390.019 294.066 377.624 307.793 358.89 303.984C345.813 301.325 338.026 295.362 337.606 289.666C337.186 283.971 335.463 278.531 332.322 278.817C329.18 279.103 318.453 273.049 318.441 269.349C318.429 265.649 334.982 245.557 334.982 245.557" fill="#FF8C1A"/>
<path d="M410.71 296.112C415.847 291.348 417.649 284.942 414.735 281.804C411.821 278.666 405.295 279.983 400.159 284.747C395.022 289.511 393.22 295.917 396.134 299.055C399.048 302.194 405.574 300.876 410.71 296.112Z" fill="#FF8000"/>
<path d="M412.192 280.345C412.192 280.345 417.361 282.432 418.883 289.946C420.405 297.461 412.04 301.258 406.487 297.717C400.935 294.175 396.326 289.624 396.326 289.624C396.326 289.624 401.3 279.529 412.198 280.338L412.192 280.345Z" fill="#E5F0FF"/>
<path d="M355.244 268.674L355.95 263.575C356.151 262.138 358.13 261.901 358.665 263.246L361.855 271.278C362.129 271.972 362.897 272.331 363.609 272.099L372.242 269.282C373.478 268.881 374.555 270.213 373.904 271.339L369.447 278.969C369.179 279.426 369.192 279.985 369.472 280.436L372.948 285.955C373.721 287.178 372.37 288.632 371.091 287.957L364.693 284.561C363.98 284.184 363.097 284.476 362.757 285.2L360.157 290.671C359.512 292.034 357.466 291.571 357.466 290.062V287.336C357.466 286.442 356.638 285.766 355.761 285.955L353.917 286.344C352.626 286.618 351.694 285.127 352.516 284.087L355.031 280.898C355.536 280.253 355.39 279.316 354.714 278.854L345.588 272.665C344.45 271.893 344.973 270.122 346.343 270.085L353.892 269.885C354.586 269.866 355.159 269.349 355.256 268.668L355.244 268.674Z" fill="#DB6E00"/>
<path d="M416.423 284.452C416.423 284.452 401.952 268.278 395.499 268.789C389.045 269.301 387.31 272.489 386.312 278.355C385.313 284.221 406.488 297.717 406.488 297.717L416.423 284.452Z" fill="#E5F0FF"/>
<path d="M386.214 278.629C386.214 278.629 386.488 269.094 395.401 269.063C404.314 269.033 387.967 287.768 386.214 278.629Z" fill="#D9E3F2"/>
<path d="M397.094 274.101L389.234 268.394L383.194 273.791L390.908 280.46C390.908 280.46 394.537 278.622 397.094 274.101Z" fill="#FADBBD"/>
<path d="M391.182 269.812C391.182 269.812 389.69 262.796 388.308 260.143C386.737 257.131 379.541 259.352 381.149 264.037C382.756 268.722 381.721 271.887 383.188 273.791C384.655 275.696 391.182 269.812 391.182 269.812Z" fill="#FADBBD"/>
<path d="M383.194 273.785C383.194 273.785 380.223 272.836 379.274 271.089C378.324 269.343 374.397 266.641 375.14 265.266C375.883 263.891 378.567 266.185 379.493 266.465C380.418 266.745 382.452 264.299 382.452 264.299L383.2 273.785H383.194Z" fill="#FADBBD"/>
<path d="M381.404 264.834C381.404 264.834 380.15 259.37 378.713 258.761C377.276 258.153 376.479 261.232 374.19 260.599C371.901 259.966 375.669 256.918 376.57 255.974C377.471 255.031 382.555 254.186 383.188 259.68L381.404 264.828V264.834Z" fill="#FADBBD"/>
<path d="M383.194 259.686C383.194 259.686 379.353 255.615 379.468 255.323C379.584 255.031 381.551 253.845 383.194 255.068C384.838 256.291 385.088 258.792 385.088 258.792L383.194 259.68V259.686Z" fill="#FADBBD"/>
<path d="M385.69 260.058C385.69 260.058 381.849 255.987 381.964 255.695C382.08 255.403 384.047 254.216 385.69 255.439C387.334 256.662 388.314 260.131 388.314 260.131L385.69 260.051V260.058Z" fill="#FADBBD"/>
<path opacity="0.1" d="M379.462 259.498C379.462 259.498 380.37 260.404 381.331 259.273C381.331 259.273 381.879 260.301 383.194 259.686C383.194 259.686 383.992 260.49 384.698 259.388C384.698 259.388 385.063 257.131 385.52 257.526C385.977 257.922 386.878 261.597 386.878 262.248C386.878 262.899 385.477 261.542 383.645 262.364C381.812 263.185 380.942 263.112 380.942 263.112C380.942 263.112 379.913 260.38 379.462 259.504V259.498Z" fill="black"/>
<rect x="69" y="389" width="208" height="62" fill="#855CD6"/>
<rect x="158" y="389" width="2" height="62" fill="black" fill-opacity="0.15"/>
<path d="M157.559 398L153 436.987H155.736V439.215L158.927 436.987L160.751 442L165.31 401.342L162.119 405.241V399.114L158.927 404.127L157.559 398Z" fill="white" fill-opacity="0.25"/>
<path d="M139.063 421.243L84.4207 411.924C83.3238 411.737 82.7874 413.212 83.7482 413.774L126.756 438.897C127.601 439.39 128.578 438.503 128.168 437.614L123.994 428.571C123.735 428.01 124.042 427.351 124.637 427.187L139.161 423.193C140.192 422.91 140.118 421.423 139.063 421.243Z" fill="black" fill-opacity="0.15"/>
<rect x="97" y="303" width="32" height="86" rx="3" fill="white"/>
<rect x="129" y="303" width="32" height="86" rx="3" fill="white"/>
<rect x="161" y="303" width="32" height="86" rx="3" fill="white"/>
<rect x="193" y="303" width="32" height="86" rx="3" fill="white"/>
<rect x="128" y="361" width="2" height="25" rx="1" fill="black" fill-opacity="0.1"/>
<rect x="160" y="361" width="2" height="25" rx="1" fill="black" fill-opacity="0.1"/>
<rect x="192" y="361" width="2" height="25" rx="1" fill="black" fill-opacity="0.1"/>
<rect x="118" y="303" width="22" height="59" rx="3" fill="#575E75"/>
<rect x="150" y="303" width="22" height="59" rx="3" fill="#575E75"/>
<rect x="182" y="303" width="22" height="59" rx="3" fill="#575E75"/>
<rect x="73" y="179" width="197" height="124" rx="7" fill="#575E75"/>
<rect x="80" y="186" width="182" height="110" rx="7" fill="#E5F0FF"/>
<rect x="199" y="241" width="8" height="8" fill="#FF6680"/>
<rect x="191" y="230" width="8" height="8" fill="#FF6680"/>
<rect x="184" y="222" width="8" height="8" fill="#FF6680"/>
<rect x="180" y="214" width="8" height="8" fill="#FF6680"/>
<rect x="176" y="222" width="8" height="8" fill="#FF6680"/>
<rect x="183" y="230" width="8" height="8" fill="#FF4D6A"/>
<rect x="175" y="230" width="8" height="8" fill="#FF6680"/>
<rect x="175" y="238" width="8" height="8" fill="#FF6680"/>
<rect x="191" y="238" width="8" height="8" fill="#FF4D6A"/>
<rect x="191" y="246" width="8" height="8" fill="#FF6680"/>
<rect x="183" y="246" width="8" height="8" fill="#FF6680"/>
<rect x="175" y="246" width="8" height="8" fill="#FF6680"/>
<rect x="184" y="254" width="8" height="8" fill="#FF6680"/>
<rect x="145" y="288" width="8" height="8" fill="#389438"/>
<rect x="153" y="288" width="8" height="8" fill="#59C059"/>
<rect x="161" y="288" width="8" height="8" fill="#59C059"/>
<rect x="161" y="280" width="8" height="8" fill="#59C059"/>
<rect x="169" y="288" width="8" height="8" fill="#46B946"/>
<rect x="177" y="288" width="8" height="8" fill="#59C059"/>
<rect x="193" y="288" width="8" height="8" fill="#59C059"/>
<rect x="193" y="280" width="8" height="8" fill="#59C059"/>
<rect x="185" y="272" width="8" height="8" fill="#59C059"/>
<rect x="185" y="280" width="8" height="8" fill="#59C059"/>
<rect x="185" y="288" width="8" height="8" fill="#46B946"/>
<rect x="201" y="288" width="8" height="8" fill="#46B946"/>
<rect x="192" y="254" width="8" height="8" fill="#FF6680"/>
<rect x="199" y="249" width="8" height="8" fill="#FF6680"/>
<rect x="183" y="238" width="8" height="8" fill="#FF4D6A"/>
<rect x="207" y="237" width="8" height="8" fill="#FF4D6A"/>
<rect x="215" y="229" width="8" height="8" fill="#FF4D6A"/>
<rect x="215" y="221" width="8" height="8" fill="#FF4D6A"/>
<rect x="199" y="233" width="8" height="8" fill="#FF6680"/>
<rect x="207" y="229" width="8" height="8" fill="#FF6680"/>
<rect x="210" y="213" width="8" height="8" fill="#FF6680"/>
<rect x="207" y="221" width="8" height="8" fill="#FF6680"/>
<rect x="274" y="307" width="40" height="14" fill="#CF8B17"/>
<rect x="271" y="307" width="40" height="14" fill="#EC9C13"/>
<rect x="303" y="352" width="40" height="14" fill="#CF8B17"/>
<rect x="300" y="352" width="40" height="14" fill="#EC9C13"/>
<rect x="292" y="265" width="40" height="14" fill="#CF8B17"/>
<rect x="289" y="265" width="40" height="14" fill="#EC9C13"/>
<rect x="311" y="330" width="22" height="22" rx="5" fill="#FF661A"/>
<circle cx="322" cy="341" r="8.16129" fill="white"/>
<circle cx="325.548" cy="341.71" r="4.6129" fill="#575E75"/>
<path fill-rule="evenodd" clip-rule="evenodd" d="M363.835 480.228L331 474.649L363.273 457L396.108 462.579L363.835 480.228Z" fill="#0FBD8C"/>
<path fill-rule="evenodd" clip-rule="evenodd" d="M369.08 483.95L331.953 478.612L364.906 461.17L402.033 466.508L369.08 483.95Z" fill="#FF8C1A"/>
<path fill-rule="evenodd" clip-rule="evenodd" d="M371.516 484.857L336.333 480.243L362.47 460.266L397.653 464.88L371.516 484.857Z" fill="#FFBF00"/>
<path d="M163.159 476.644C157.159 480.644 148.992 480.311 145.659 479.644C142.992 479.644 138.259 480.644 140.659 484.644C143.659 489.644 145.659 493.144 151.159 487.644C156.659 482.144 159.159 484.644 167.659 487.644C176.159 490.644 186.659 484.644 181.659 484.644C176.659 484.644 170.659 479.644 176.659 479.644C182.659 479.644 170.659 471.644 163.159 476.644Z" fill="#9966FF"/>
<ellipse cx="157.159" cy="489.144" rx="3.5" ry="1.5" fill="#9966FF"/>
<ellipse cx="22" cy="432.5" rx="13" ry="4.5" fill="#2E8EB8"/>
<path fill-rule="evenodd" clip-rule="evenodd" d="M22.3122 425.276L7.92474 429.479C5.88968 420.813 6.21148 415.923 8.89073 414.809C12.91 413.138 11.1452 415.687 14.1783 413.651C17.2112 411.614 16.9985 414.518 18.702 413.395C20.4054 412.272 26.5508 410.404 24.3324 413.791C22.0085 417.341 21.3351 421.169 22.3122 425.276Z" fill="#FEFEFE"/>
<path fill-rule="evenodd" clip-rule="evenodd" d="M18.8834 445.03C18.2579 445.167 17.891 445.918 18.0637 446.707C18.2366 447.496 18.8837 448.024 19.5094 447.887C20.1349 447.75 20.502 446.999 20.3291 446.21C20.1562 445.421 19.509 444.893 18.8834 445.03ZM15.2521 428.278L22.5596 426.677C22.6053 426.886 22.7379 427.491 22.9572 428.492C23.5556 431.224 17.978 431.811 18.7939 435.536C19.6099 439.26 21.2894 439.52 22.0434 442.962C22.4696 444.907 22.6688 448.588 19.8343 449.211C16.9987 449.83 15.6413 446.403 15.215 444.458C14.461 441.016 15.8784 440.078 15.0625 436.353C14.2466 432.628 8.96215 434.195 8.36361 431.462C8.14431 430.461 8.0117 429.856 7.96599 429.647L15.2521 428.278Z" fill="#CF8B17"/>
<path fill-rule="evenodd" clip-rule="evenodd" d="M22.895 427.875L8.27387 431.078L7.70839 428.497L22.3297 425.294L22.895 427.875Z" fill="#EC9C13"/>
<path fill-rule="evenodd" clip-rule="evenodd" d="M24.3321 413.792C23.1831 415.548 22.6076 417.013 22.3976 417.961C20.1477 416.947 18.9597 418.787 17.5864 419.401C15.2515 420.444 14.8602 419.611 12.0833 420.009C9.62761 420.361 7.6222 423.881 6.99361 424.781C5.89964 418.309 7.10275 415.552 8.8912 414.81C12.9107 413.137 11.1451 415.687 14.178 413.65C17.2109 411.614 16.9987 414.518 18.7024 413.395C20.4061 412.272 26.55 410.404 24.3321 413.792Z" fill="#0EBD8C"/>
<path fill-rule="evenodd" clip-rule="evenodd" d="M20.4435 431.557L32.4289 435.058C34.1242 427.839 33.8561 423.765 31.6242 422.837C28.2759 421.446 29.7461 423.569 27.2194 421.872C24.6929 420.176 24.87 422.595 23.4509 421.66C22.032 420.724 16.9125 419.168 18.7605 421.99C20.6964 424.947 21.2575 428.136 20.4435 431.557Z" fill="#FEFEFE"/>
<path fill-rule="evenodd" clip-rule="evenodd" d="M23.2992 448.013C23.8203 448.127 24.1259 448.752 23.9821 449.41C23.8381 450.067 23.2989 450.507 22.7777 450.393C22.2567 450.279 21.9509 449.654 22.0949 448.996C22.2389 448.339 22.778 447.899 23.2992 448.013ZM26.3244 434.057L20.2369 432.724C20.1988 432.898 20.0883 433.402 19.9056 434.236C19.4071 436.512 24.0536 437.001 23.3739 440.104C22.6941 443.207 21.295 443.423 20.6669 446.29C20.3118 447.911 20.1459 450.977 22.5071 451.496C24.8694 452.012 26.0001 449.157 26.3552 447.536C26.9834 444.669 25.8027 443.888 26.4823 440.785C27.162 437.682 31.5642 438.987 32.0628 436.711C32.2455 435.877 32.3559 435.373 32.394 435.199L26.3244 434.057Z" fill="#CF8B17"/>
<path fill-rule="evenodd" clip-rule="evenodd" d="M19.9577 433.722L32.1377 436.39L32.6088 434.24L20.4286 431.572L19.9577 433.722Z" fill="#EC9C13"/>
<path fill-rule="evenodd" clip-rule="evenodd" d="M18.7607 421.99C19.7179 423.453 20.1974 424.673 20.3723 425.463C22.2465 424.618 23.2362 426.151 24.3802 426.662C26.3253 427.532 26.6512 426.838 28.9645 427.169C31.0102 427.463 32.6808 430.394 33.2045 431.145C34.1158 425.753 33.1136 423.457 31.6237 422.838C28.2753 421.445 29.7461 423.569 27.2195 421.872C24.693 420.175 24.8698 422.595 23.4506 421.66C22.0313 420.724 16.9131 419.168 18.7607 421.99Z" fill="#9966FF"/>
<path fill-rule="evenodd" clip-rule="evenodd" d="M22 437C29.1797 437 35 434.985 35 432.5V460.56V460.56C34.9999 463.012 29.1796 465 22 465C14.8204 465 9.00011 463.012 9 460.56V460.56V432.5C9 434.985 14.8203 437 22 437ZM9.00113 432.44C9.00038 432.46 9 432.48 9 432.5V432.44H9.00113ZM34.9989 432.44H35V432.5C35 432.48 34.9996 432.46 34.9989 432.44Z" fill="#5CB1D6"/>
<path d="M15 443.607C11.8 443.607 9.66667 441.202 9 440V451.542C10.6 454.427 13.6667 454.187 15 453.706V443.607Z" fill="white" fill-opacity="0.5"/>
<g clip-path="url(#clip1_365_12169)">
<path d="M295.649 264.739L276.985 235.492C276.969 235.467 276.963 235.437 276.968 235.408C276.973 235.378 276.99 235.352 277.014 235.335C277.038 235.317 277.067 235.309 277.097 235.312C277.126 235.316 277.153 235.33 277.173 235.353L293.486 252.432L295.649 264.739Z" fill="#C94FC9"/>
<path d="M295.769 264.683L327.258 264.908C327.29 264.908 327.322 264.901 327.351 264.887C327.38 264.873 327.405 264.853 327.424 264.827C327.444 264.802 327.457 264.772 327.463 264.741C327.469 264.709 327.468 264.677 327.459 264.646L320.657 211.003C320.645 210.961 320.621 210.924 320.588 210.897C320.554 210.87 320.513 210.855 320.47 210.852C320.427 210.85 320.385 210.861 320.348 210.885C320.312 210.908 320.284 210.942 320.269 210.982L295.579 264.4C295.567 264.432 295.562 264.465 295.566 264.499C295.57 264.532 295.581 264.564 295.6 264.592C295.619 264.619 295.644 264.642 295.673 264.658C295.703 264.674 295.736 264.683 295.769 264.683V264.683Z" fill="#BD42BD"/>
<path d="M295.649 264.738L327.498 265.049L280.416 211.391C280.389 211.355 280.35 211.329 280.306 211.318C280.262 211.306 280.215 211.31 280.174 211.329C280.132 211.347 280.098 211.379 280.077 211.42C280.055 211.46 280.049 211.507 280.057 211.551L295.649 264.738Z" fill="#CF63CF"/>
<path d="M321.24 257.921L336.891 221.009L340.067 221.785L327.496 265.054L321.24 257.921Z" fill="#C94FC9"/>
<path d="M340.067 221.785L345.839 223.746L338.759 226.289L340.067 221.785Z" fill="#CF63CF"/>
<path d="M307.193 261.866L284.621 220.006" stroke="#C94FC9" stroke-width="3" stroke-miterlimit="10" stroke-linecap="round"/>
</g>
<g clip-path="url(#clip2_365_12169)">
<path d="M375.441 265.826L378.908 261.859C378.911 261.855 378.913 261.851 378.912 261.846C378.912 261.842 378.91 261.838 378.907 261.834C378.904 261.831 378.9 261.829 378.895 261.829C378.891 261.829 378.886 261.831 378.883 261.834L376.045 264.027L375.441 265.826Z" fill="#4280D7"/>
<path d="M375.424 265.815L370.69 265.133C370.686 265.132 370.681 265.131 370.677 265.128C370.673 265.125 370.67 265.122 370.667 265.117C370.665 265.113 370.664 265.108 370.663 265.103C370.663 265.099 370.664 265.094 370.666 265.089L372.907 257.189C372.909 257.183 372.914 257.178 372.919 257.175C372.925 257.171 372.932 257.17 372.938 257.171C372.945 257.171 372.951 257.174 372.956 257.178C372.961 257.183 372.964 257.188 372.965 257.195L375.459 265.777C375.46 265.782 375.46 265.787 375.458 265.792C375.457 265.797 375.455 265.801 375.451 265.805C375.448 265.809 375.443 265.812 375.439 265.814C375.434 265.815 375.429 265.816 375.424 265.815V265.815Z" fill="#3373CC"/>
<path d="M375.441 265.826L370.651 265.149L378.94 258.162C378.945 258.157 378.952 258.154 378.959 258.153C378.965 258.153 378.972 258.154 378.978 258.158C378.984 258.162 378.988 258.167 378.991 258.174C378.993 258.18 378.993 258.187 378.991 258.194L375.441 265.826Z" fill="#4C97FF"/>
<path d="M371.753 264.221L370.242 258.323L369.747 258.367L370.652 265.15L371.753 264.221Z" fill="#4280D7"/>
<path d="M369.747 258.367L368.836 258.53L369.841 259.073L369.747 258.367Z" fill="#4C97FF"/>
</g>
<rect x="195" y="102" width="88" height="77" rx="1" fill="#EC9C13"/>
<rect x="195" y="102.919" width="41.7923" height="3.04728" rx="1.52364" transform="rotate(-11.6551 195 102.919)" fill="#EC9C13"/>
<rect width="41.7923" height="3.04728" rx="1.52364" transform="matrix(-0.979382 -0.202019 -0.202019 0.979382 282.546 102.443)" fill="#EC9C13"/>
<path d="M197 111.5L195 113.5V167.5L196 168V167L197 167.5L199.5 113.5L197.5 114.5L197 111.5Z" fill="white" fill-opacity="0.5"/>
<path d="M281.222 178L283 176.018V122.496L282.111 122V122.991L281.222 122.496L279 176.018L280.778 175.027L281.222 178Z" fill="white" fill-opacity="0.5"/>
<path d="M214.833 153.627C209.522 155.157 214.989 164.811 218.789 158.921C219.727 157.467 220.983 155.585 218.27 155.092C217.157 154.89 216.39 154.271 215.248 154.042" stroke="#FF661A" stroke-width="3" stroke-linecap="round"/>
<path d="M214.833 133.904C214.67 134.967 213.557 138.345 214.602 139.291C215.392 140.005 217.53 140.752 218.57 140.248C219.724 139.688 219.983 137.025 219.516 135.98C218.722 134.207 216.741 133.939 215.04 133.697" stroke="#FF661A" stroke-width="3" stroke-linecap="round"/>
<path d="M237.047 132.866C236.356 133.827 233.899 138.097 236.101 138.887C237.819 139.502 239.754 139.574 240.727 137.733C242.268 134.816 241.336 132.243 237.878 132.243" stroke="#FF661A" stroke-width="3" stroke-linecap="round"/>
<path d="M236.425 153.004C234.795 154.206 233.754 157.948 235.594 159.51C236.967 160.676 239.092 159.589 240.069 158.449C241.13 157.211 240.961 155.299 240 154.066C239.08 152.885 237.57 152.91 236.217 152.797" stroke="#FF661A" stroke-width="3" stroke-linecap="round"/>
<path d="M255.317 133.281C251.463 137.362 258.54 141.228 260.761 137.341C261.496 136.056 260.937 133.988 259.538 133.374C258.4 132.874 256.953 133.074 255.732 133.074" stroke="#FF661A" stroke-width="3" stroke-linecap="round"/>
<path d="M257.393 152.381C256.088 153.847 254.63 156.891 256.828 158.356C258.595 159.534 261.794 157.899 262.261 155.899C262.929 153.035 260.13 152.174 258.016 152.174" stroke="#FF661A" stroke-width="3" stroke-linecap="round"/>
<path d="M205.905 127.676C205.862 137.17 205.659 146.678 206.205 156.165C206.361 158.869 206.808 161.554 207.232 164.227C207.392 165.234 207.716 166.005 208.27 166.857C208.748 167.591 211.96 167.402 212.664 167.514C215.828 168.017 218.912 168.885 222.099 169.267C228.043 169.98 234.045 170.043 239.931 168.829C240.698 168.671 241.587 168.459 242.33 168.16C242.669 168.023 243.044 167.648 243.414 167.583C243.674 167.538 244.237 167.671 244.394 167.699C246.154 168.013 247.906 168.372 249.665 168.691C254.021 169.479 258.476 169.544 262.895 169.394C264.979 169.323 266.703 168.476 268.65 167.872C268.863 167.805 269.344 167.764 269.435 167.491C269.82 166.334 269.77 164.683 269.838 163.535C269.97 161.328 270.068 159.114 270.011 156.903C269.886 152.02 269.226 147.245 269.596 142.347C269.895 138.385 269.642 134.325 269.642 130.352C269.642 128.14 269.669 126.096 268.939 123.985C268.621 123.067 267.798 123.291 266.874 123.224C262.665 122.917 258.458 122.472 254.233 122.485C249.732 122.5 245.274 123.731 240.807 123.731C233.318 123.731 225.827 123.108 218.328 123.108C213.946 123.108 209.351 123.491 205.49 125.807" stroke="#575E75" stroke-width="3" stroke-linecap="round"/>
<path d="M206.872 113.33C209.618 111.341 215.168 106.347 218.483 109.91C219.841 111.37 220.354 113.824 222.023 114.964C223.32 115.849 225.589 114.77 226.794 114.177C227.759 113.702 228.851 113.26 229.581 112.441C229.808 112.187 230.23 112.223 230.539 112.185C231.91 112.014 233.281 111.877 234.66 111.791C236.534 111.676 237.925 111.517 239.329 112.86C240.225 113.717 241.058 114.366 242.305 114.63C243.773 114.941 245.231 114.932 246.597 114.254C247.476 113.818 247.974 112.921 248.957 112.783C250.497 112.568 252.156 112.15 253.711 112.168C254.628 112.178 255.114 113.328 255.763 113.826C256.922 114.717 258.082 115.155 259.414 114.374C260.397 113.797 261.227 112.633 262.304 112.253C263.622 111.788 264.827 111.845 266.16 112.031C267.12 112.164 268.143 112.154 269.05 111.791" stroke="#3373CC" stroke-width="3" stroke-linecap="round"/>
<path fill-rule="evenodd" clip-rule="evenodd" d="M274.667 159.148L275.112 163.77L279.172 166.027C280.556 166.794 280.458 168.814 279.007 169.446L274.746 171.297L273.856 175.856C273.554 177.408 271.601 177.939 270.554 176.755L267.477 173.275L262.866 173.838C261.295 174.029 260.188 172.337 260.99 170.974L263.349 166.973L261.39 162.762C260.722 161.327 261.988 159.75 263.533 160.094L268.069 161.098L271.466 157.934C272.625 156.857 274.514 157.574 274.667 159.148Z" fill="#FFBF00"/>
<path fill-rule="evenodd" clip-rule="evenodd" d="M204.499 116.87L206.393 119.183L209.372 118.935C210.387 118.85 211.058 119.966 210.509 120.823L208.893 123.339L210.05 126.096C210.444 127.035 209.59 128.018 208.605 127.76L205.713 127.001L203.449 128.954C202.677 129.619 201.479 129.11 201.42 128.094L201.248 125.109L198.692 123.559C197.821 123.03 197.933 121.733 198.882 121.364L201.668 120.276L202.352 117.367C202.586 116.376 203.853 116.083 204.499 116.87" fill="#FFBF00"/>
<path d="M125.364 465.371C125.364 465.371 126.254 468.5 125.396 471.149C124.538 473.797 110.231 480.913 106.914 484.058C103.601 487.203 88.5661 490.602 86.5215 479.262L125.364 465.371Z" fill="#E5F0FF"/>
<path d="M62.1046 235.996C62.1046 235.996 58.393 232.991 50.9644 246.419C44.6849 257.764 34.1436 271.834 32.7086 285.202C31.2736 298.57 51.2396 309.91 51.2396 309.91L61.1929 287.975C61.1929 287.975 55.9384 283.092 56.4185 280.228C56.8987 277.363 58.393 273.333 58.393 273.333L62.1046 235.996Z" fill="#955D31"/>
<path d="M84.4821 331.505C84.4821 331.505 81.6337 391.29 69.0909 408.872C56.5481 426.453 42.376 410.754 43.3255 391.603C44.2804 372.451 41.9013 312.37 51.3206 303.301C72.2846 283.125 84.4768 331.505 84.4768 331.505H84.4821Z" fill="black"/>
<path d="M57.1744 235.71C57.1744 235.71 54.3259 249.041 58.3936 276.457C60.2925 289.264 43.6065 304.677 45.0901 327.999C46.5737 351.32 102.787 334.559 114.337 327.853C125.887 321.147 110.874 292.658 112.368 281.08C113.863 269.503 113.334 245.335 100.041 240.393C86.7484 235.452 57.1798 235.705 57.1798 235.705L57.1744 235.71Z" fill="#955D31"/>
<path d="M86.5215 235.198C86.5215 235.198 114.337 224.203 130.893 208.661L142.854 167.607L155.062 170.418C155.062 170.418 152.03 215.334 149.829 221.484C147.628 227.634 106.871 255.159 106.871 255.159L89.2782 264.756L86.5161 235.198H86.5215Z" fill="#955D31"/>
<path d="M53.8779 238.3C53.8779 238.3 24.8325 270.107 28.2851 282.521C31.7324 294.934 42.3115 303.366 42.3115 303.366L61.1932 287.975L53.8779 238.294V238.3Z" fill="#E6AC00"/>
<path d="M79.5245 329.38C79.5245 329.38 77.0321 389.181 87.9565 407.809C98.8809 426.437 114.396 412.065 115.157 392.903C115.918 373.741 123.637 314.112 115.06 304.24C95.9785 282.278 79.5191 329.374 79.5191 329.374L79.5245 329.38Z" fill="black"/>
<path d="M50.9589 246.419C50.9589 246.419 46.2546 260.542 52.9334 285.348C55.0967 293.386 41.0919 319.453 42.419 339.975C43.7461 360.491 66.7979 372.802 77.0857 366.318C87.3735 359.833 121.377 340.79 125.763 324.465C130.149 308.14 124.824 268.969 128.179 259.798C131.535 250.627 153.346 233.774 155.062 222.358C156.777 210.943 152.467 202.495 152.467 202.495L134.292 196.992C134.038 196.663 129.593 204.529 127.505 208.046C125.563 211.321 100.429 228.001 93.1513 232.328C85.8738 236.654 55.4635 233.31 55.4635 233.31L50.9589 246.424V246.419Z" fill="#FFBF00"/>
<path d="M85.2216 401.006C85.2216 401.006 76.6924 431.934 86.5217 456.486C96.351 481.037 105.387 466.277 109.919 447.6C112.589 436.59 114.423 398.907 114.423 398.907L85.2216 401.006Z" fill="black"/>
<path d="M88.2313 460.262C88.2313 460.262 83.1764 471.154 86.5158 479.262C89.8551 487.371 106.066 481.965 109.152 479.262C112.238 476.56 126.135 469.617 125.358 465.371C125.029 463.564 115.804 459.803 110.792 459.027C104.038 457.98 101.044 460.267 101.044 460.267H88.2259L88.2313 460.262Z" fill="#FF661A"/>
<path d="M108.824 459.895L109.099 450.767C109.099 450.767 96.7662 456.049 84.272 449.65C84.272 449.65 87.2013 462.695 86.7482 464.367C86.295 466.04 108.824 459.9 108.824 459.9V459.895Z" fill="#FF661A"/>
<path d="M103.579 468.057C105.102 468.057 106.336 465.611 106.336 462.592C106.336 459.574 105.102 457.127 103.579 457.127C102.057 457.127 100.823 459.574 100.823 462.592C100.823 465.611 102.057 468.057 103.579 468.057Z" fill="white"/>
<path d="M85.3774 450.185C85.3774 450.185 89.0836 462.776 88.7222 466.137C88.3607 469.498 85.8845 467.847 87.7134 481.129C87.7134 481.129 88.6844 483.254 91.2038 483.109C91.2038 483.109 88.0478 469.795 91.2038 466.649L88.2906 451.328L85.3774 450.185Z" fill="#E64D00"/>
<path d="M115.232 460.116C115.232 460.116 121.555 461.195 122.386 470.086C122.386 470.086 125.52 468.138 125.358 465.371C125.197 462.603 115.227 460.116 115.227 460.116H115.232Z" fill="#D9E3F2"/>
<path d="M83.6894 465.786C83.6894 465.786 84.5796 468.915 83.7218 471.564C82.864 474.213 68.5571 481.328 65.2394 484.474C61.927 487.619 46.8918 491.017 44.8472 479.678L83.6894 465.786Z" fill="#E5F0FF"/>
<path d="M43.7629 399.323C43.7629 399.323 35.0126 432.355 44.8472 456.901C54.6819 481.447 63.7127 466.693 68.2443 448.016C70.9147 437.005 72.7489 399.323 72.7489 399.323H43.7629Z" fill="black"/>
<path d="M46.5629 460.677C46.5629 460.677 41.508 471.569 44.8473 479.678C48.1867 487.786 64.3979 482.38 67.4837 479.678C70.5696 476.975 84.4665 470.032 83.6896 465.786C83.3605 463.979 74.1355 460.219 69.1238 459.442C62.3695 458.395 59.3754 460.683 59.3754 460.683H46.5575L46.5629 460.677Z" fill="#FF661A"/>
<path d="M67.1492 460.311L67.4243 451.183C67.4243 451.183 55.0919 456.464 42.5977 450.066C42.5977 450.066 45.527 463.11 45.0739 464.783C44.6207 466.455 67.1492 460.316 67.1492 460.316V460.311Z" fill="#FF661A"/>
<path d="M61.9052 468.473C63.4277 468.473 64.6619 466.026 64.6619 463.008C64.6619 459.99 63.4277 457.543 61.9052 457.543C60.3827 457.543 59.1484 459.99 59.1484 463.008C59.1484 466.026 60.3827 468.473 61.9052 468.473Z" fill="white"/>
<path d="M43.7031 450.6C43.7031 450.6 47.4093 463.191 47.0479 466.552C46.6864 469.913 44.2102 468.262 46.0391 481.544C46.0391 481.544 47.0101 483.67 49.5295 483.524C49.5295 483.524 46.3735 470.21 49.5295 467.065L46.6163 451.744L43.7031 450.6Z" fill="#E64D00"/>
<path d="M73.5576 460.532C73.5576 460.532 79.8803 461.611 80.7111 470.501C80.7111 470.501 83.8455 468.554 83.6836 465.786C83.5218 463.019 73.5522 460.532 73.5522 460.532H73.5576Z" fill="#D9E3F2"/>
<path d="M42.5974 450.061L41.103 442.837C41.103 442.837 57.1902 449.386 69.1935 442.837C69.1935 442.837 68.3358 449.942 67.4187 451.177C67.4187 451.177 55.8523 456.432 42.592 450.061H42.5974Z" fill="#FFBF00"/>
<path d="M84.1316 449.532L82.6372 442.308C82.6372 442.308 98.7244 448.858 110.728 442.308C110.728 442.308 109.87 449.413 108.953 450.649C108.953 450.649 97.3865 455.903 84.1262 449.532H84.1316Z" fill="#FFBF00"/>
<path d="M98.8916 228.584C98.8916 228.584 91.0153 254.301 53.0308 240.393L54.6384 235.705L92.5258 227.98L98.8862 228.584H98.8916Z" fill="#E6AC00"/>
<path d="M69.0216 178.245C61.1884 191.932 61.9113 211.871 73.9524 219.084C85.9935 226.296 102.323 221.171 110.426 207.641C118.529 194.111 114.462 178.591 103.305 170.083C90.2284 160.114 75.2633 167.348 69.027 178.24L69.0216 178.245Z" fill="#955D31"/>
<path d="M112.228 203.59C112.228 203.59 109.865 206.131 113.577 211.38C114.736 213.02 114.521 214.024 113.997 214.547C113.274 215.27 111.144 216.586 110.194 216.181C109.735 215.982 109.266 217.126 108.964 217.525C108.867 217.654 108.757 217.861 108.635 218.145C108.468 218.539 109.234 219.165 108.317 220.254C107.265 221.495 104.513 219.375 104.281 219.24C102.415 218.134 102.388 215.448 103.58 218.674C104.217 220.395 105.166 219.677 105.549 221.517C106.137 224.328 103.278 224.333 103.278 224.333C103.278 224.333 98.9729 226.993 94.3334 226.966C80.1992 226.885 70.6396 216.786 70.6396 216.786L112.228 203.595V203.59Z" fill="#955D31"/>
<path d="M109.498 205.604C109.885 204.642 109.895 203.74 109.519 203.589C109.143 203.437 108.524 204.094 108.137 205.056C107.749 206.017 107.74 206.92 108.116 207.071C108.491 207.223 109.11 206.566 109.498 205.604Z" fill="#231F20"/>
<path d="M111.861 199.274C111.861 199.274 110.075 198.756 109.002 199.005C107.928 199.253 108.058 200.85 108.311 200.79C109.763 200.477 110.599 200.353 112.055 201.292C112.606 201.648 112.821 199.415 111.861 199.269V199.274Z" fill="#482D18"/>
<path d="M66.8958 196.054C66.8958 196.054 62.2779 194.23 59.5805 198.94C59.5805 198.94 56.1495 197.289 54.9194 200.137C54.9194 200.137 50.3825 201.292 50.0156 206.352C50.0156 206.352 45.8455 207.447 45.8455 213.554C45.8455 213.554 40.2079 216.527 41.3085 224.446C42.409 232.366 47.3182 231.217 47.3182 231.217C47.3182 231.217 47.0755 236.827 50.1397 236.665C53.2039 236.504 50.5065 241.947 60.5624 239.967C70.6182 237.987 66.1999 230.062 66.1999 230.062C66.1999 230.062 70.7369 231.961 70.4887 226.966C70.4887 226.966 76.3906 223.044 75.5166 219.332C74.6427 215.62 66.8904 196.059 66.8904 196.059L66.8958 196.054Z" fill="#482D18"/>
<path d="M77.3727 205.333L87.3584 206.482C87.3584 206.482 91.1401 206.6 91.3721 213.705C91.3721 213.705 97.3387 216.51 93.3034 225.676C93.3034 225.676 96.7453 224.36 96.7453 230.299C96.7453 230.299 95.8821 229.544 94.6305 228.449C94.6305 228.449 98.0993 228.449 96.2759 233.569C94.4525 238.688 89.9532 235.457 89.9532 235.457C89.9532 235.457 94.0479 237.345 91.3721 240.307C88.6909 243.268 85.3191 241.386 85.3191 241.386C85.3191 241.386 84.197 245.966 80.8253 243.948C80.8253 243.948 78.1549 246.732 75.4899 244.461C75.4899 244.461 72.0318 248.431 67.4841 245.06C67.4841 245.06 64.7381 247.244 62.85 245.06C60.9618 242.875 61.1668 239.498 61.1668 239.498L59.7642 229.841L77.3781 205.333H77.3727Z" fill="#482D18"/>
<path d="M63.8804 195.708V192.736L87.353 206.482L71.5679 213.409L63.8804 195.708Z" fill="#482D18"/>
<path d="M83.1232 216.413C85.903 216.413 88.1565 214.16 88.1565 211.38C88.1565 208.6 85.903 206.347 83.1232 206.347C80.3433 206.347 78.0898 208.6 78.0898 211.38C78.0898 214.16 80.3433 216.413 83.1232 216.413Z" stroke="#FFBF00" stroke-width="1.61843" stroke-miterlimit="10"/>
<path d="M79.719 203.072C79.719 203.072 80.0049 192.315 86.0416 194.273C86.0416 194.273 87.4389 194.726 86.5217 198.934C86.2844 200.029 87.3579 204.248 90.9994 198.767C93.4864 195.029 90.2172 194.77 91.3932 192.417C92.5693 190.065 98.6708 191.053 99.5339 185.879C99.6634 185.102 102.08 185.545 101.611 184.935C97.1009 179.044 86.0794 179.092 79.7297 181.73C72.4037 184.768 64.9805 193.372 64.9805 193.372L79.7297 203.067L79.719 203.072Z" fill="#482D18"/>
<path d="M66.513 194.279C66.513 194.279 76.871 171.259 99.5667 182.167C100.797 182.761 103.106 186.629 104.12 185.183C105.134 183.737 105.717 177.528 110.556 178.116C110.556 178.116 105.113 165.8 90.4711 165.357C77.1137 164.953 64.7543 177.145 63.8804 192.736" fill="#482D18"/>
<path d="M98.0453 186.861C98.0453 186.861 98.9409 191.673 95.5637 192.029C92.1866 192.385 91.3235 193.437 91.3936 194.209C91.4637 194.98 88.9875 195.6 88.9875 195.6L88.1567 190.017L98.0453 186.861Z" fill="#482D18"/>
<path d="M104.897 183.273C104.897 183.273 105.447 181.509 106.17 181.218C106.893 180.927 106.601 179.853 107.54 179.778C108.479 179.702 109.158 179.152 109.336 178.828C109.514 178.504 109.914 178.391 109.914 178.391L108.004 177.674L105.182 179.783L104.891 183.279L104.897 183.273Z" fill="#482D18"/>
<path d="M101.358 185.156C101.358 185.156 101.951 186.268 101.903 187.26C101.859 188.059 100.376 189.294 99.3022 188.01C99.3022 188.01 102.21 187.983 99.6367 185.194" fill="#482D18"/>
<path d="M81.6291 166.933C81.6291 166.933 76.2775 167.229 74.2383 169.759C74.2383 169.759 71.8053 169.857 70.64 172.484C70.64 172.484 68.1098 173.455 67.333 176.179C67.333 176.179 64.3173 178.03 64.3173 181.434C64.3173 181.434 61.8843 182.939 61.9814 186.855C61.9814 186.855 61.102 188.172 61.9814 191.225C61.9814 191.225 60.5194 193.146 61.593 196.679C62.6665 200.213 66.3619 197.1 66.3619 197.1C66.3619 197.1 65.488 178.904 72.4904 175.208C79.4928 171.513 81.6345 166.933 81.6345 166.933H81.6291Z" fill="#482D18"/>
<path d="M86.4629 196.118C86.0368 194.727 83.4203 193.993 80.7823 197.44C78.1442 200.887 80.8794 208.429 83.922 208.025C86.9647 207.62 83.2099 202.419 84.181 200.979C85.152 199.539 86.8568 197.402 86.4629 196.118Z" fill="#6B3D1F"/>
<path d="M75.2416 211.806C75.2416 211.806 80.275 212.028 80.3181 215.858C80.3181 215.858 83.3823 215.486 82.8051 217.816C82.2279 220.147 79.3093 217.374 79.3093 217.374C79.3093 217.374 74.864 219.246 75.0366 216.883C75.2093 214.52 75.2416 211.806 75.2416 211.806Z" fill="#482D18"/>
<path d="M133.742 198.95C133.742 198.95 132.134 197.839 133.742 195.816C135.349 193.793 133.947 194.279 134.659 193.194C135.371 192.11 146.171 192.676 153.827 197.974C153.827 197.974 155.72 199.512 154.825 200.612C153.929 201.713 154.722 205.689 153.19 204.459C146.171 198.826 137.971 198.956 133.747 198.956L133.742 198.95Z" fill="#E6AC00"/>
<path d="M142.853 167.607C142.853 167.607 142.168 158.301 142.853 154.627C143.538 150.953 156.928 149.114 157.452 154.627C157.975 160.14 156.891 161.462 156.481 163.965C156.071 166.469 156.06 168.13 155.062 170.418C154.064 172.705 142.853 167.607 142.853 167.607Z" fill="#955D31"/>
<path d="M142.853 154.627C142.853 154.627 142.405 149.75 142.546 147.668C142.686 145.585 144.186 140.336 145.351 140.423C146.516 140.509 145.2 146.022 145.2 146.772C145.2 147.522 145.766 152.129 145.766 152.129C145.766 152.129 145.907 139.473 147.822 136.641C149.737 133.809 149.726 137.984 149.656 138.389C149.521 139.166 149.241 145.138 149.241 145.138L150.055 151.196C150.055 151.196 149.133 137.008 151.76 135.12C153.508 133.863 152.769 142.91 152.844 143.638C152.92 144.366 153.54 151.358 153.54 151.358C153.54 151.358 153.745 138.632 156.146 138.928C157.592 139.106 156.313 140.757 156.75 145.839C157.187 150.921 157.451 154.632 157.451 154.632H142.853V154.627Z" fill="#955D31"/>
<path d="M229.637 209.592C229.637 209.592 222.71 211.814 224.755 213.422C224.755 213.422 225.71 214.242 227.193 214.452L227.042 214.933L231.811 213.827C231.811 213.827 233.43 215.893 232.043 216.761C231.25 217.258 231.849 217.927 232.507 218.407C231.444 220.322 234.854 223.187 234.854 223.187L237.222 215.051L233.273 208.087L229.648 209.592H229.637Z" fill="#BF8C5C"/>
<path d="M240.286 230.399L234.336 227.276C234.336 227.276 229.335 222.76 229.372 220.16C229.41 217.56 222.678 214.911 224.755 213.422C228.639 210.644 231.892 218.552 234.551 217.986C237.211 217.42 232.194 209.646 232.194 209.646C232.194 209.646 222.607 209.786 223.12 207.455C223.632 205.125 231.752 205.325 234.185 206.657C236.812 208.097 239.466 212.753 240.885 216.6C242.309 220.446 248.659 226.537 248.659 226.537L246.253 227.562L240.286 230.399Z" fill="#E0B585"/>
<path d="M197.155 368.64C197.155 368.64 195.143 373.226 192.51 385.86C189.878 398.495 185.346 431.138 185.346 431.138C185.346 431.138 187.795 435.147 189.462 435.546C195.645 437.03 198.207 431.02 198.207 431.02L207.287 388.482L197.155 368.646V368.64Z" fill="#3373CC"/>
<path d="M241.559 432.319C244.161 429.717 242.851 424.189 238.633 419.971C234.416 415.753 228.887 414.443 226.285 417.045C223.683 419.647 224.993 425.176 229.211 429.393C233.429 433.611 238.957 434.921 241.559 432.319Z" fill="#0FBD8C"/>
<path d="M192.985 440.112C195.587 437.51 194.277 431.982 190.059 427.764C185.841 423.546 180.313 422.236 177.711 424.838C175.109 427.44 176.419 432.968 180.637 437.186C184.855 441.404 190.383 442.714 192.985 440.112Z" fill="#0FBD8C"/>
<path d="M192.832 454.68C195.98 454.363 198.003 448.859 197.351 442.388C196.698 435.917 193.617 430.928 190.468 431.246C187.32 431.563 185.297 437.067 185.95 443.538C186.603 450.009 189.684 454.998 192.832 454.68Z" fill="#575E75" stroke="#828282" stroke-width="8.09214" stroke-miterlimit="10"/>
<path d="M260.209 451.849C264.516 451.415 267.479 445.816 266.826 439.345C266.173 432.874 262.152 427.98 257.845 428.414C253.538 428.849 250.575 434.447 251.228 440.918C251.881 447.39 255.902 452.284 260.209 451.849Z" fill="#575E75" stroke="#828282" stroke-width="8.09214" stroke-miterlimit="10"/>
<path d="M255.203 437.731C255.203 438.938 256.181 439.916 257.388 439.916C258.595 439.916 259.573 438.938 259.573 437.731V409.522C259.573 408.315 258.595 407.337 257.388 407.337C256.181 407.337 255.203 408.315 255.203 409.522V437.731Z" fill="#47A8D1"/>
<path d="M260.72 429.903C261.323 430.948 262.66 431.306 263.705 430.702C264.75 430.099 265.108 428.763 264.504 427.718L258.152 416.715C257.549 415.67 256.212 415.312 255.167 415.915C254.122 416.519 253.764 417.855 254.368 418.9L260.72 429.903Z" fill="#47A8D1"/>
<path d="M298.613 479.202C311.449 477.908 319.219 450.729 315.967 418.497C312.716 386.265 299.675 361.186 286.839 362.48C274.003 363.775 266.233 390.954 269.485 423.186C272.736 455.418 285.777 480.497 298.613 479.202Z" stroke="#999999" stroke-width="8.09214" stroke-miterlimit="10"/>
<path d="M297.477 468.009C305.478 467.202 309.87 445.785 307.286 420.172C304.703 394.56 296.122 374.451 288.121 375.258C280.12 376.065 275.729 397.482 278.312 423.095C280.896 448.707 289.476 468.816 297.477 468.009Z" stroke="#CCCCCC" stroke-width="4.31581" stroke-miterlimit="10"/>
<path d="M281.211 366.79L300.206 474.744" stroke="#999999" stroke-width="0.539476" stroke-miterlimit="10"/>
<path d="M274.02 447.117L306.534 390.591" stroke="#999999" stroke-width="0.539476" stroke-miterlimit="10"/>
<path d="M290.712 366.79L290.118 472.651" stroke="#999999" stroke-width="0.539476" stroke-miterlimit="10"/>
<path d="M301.091 374.083L280.262 459.132" stroke="#999999" stroke-width="0.539476" stroke-miterlimit="10"/>
<path d="M274.02 377.072L308.061 465.605" stroke="#999999" stroke-width="0.539476" stroke-miterlimit="10"/>
<path d="M271.5 394.513L311.832 447.117" stroke="#999999" stroke-width="0.539476" stroke-miterlimit="10"/>
<path d="M268.809 412.391L313.197 425.555" stroke="#999999" stroke-width="0.539476" stroke-miterlimit="10"/>
<path d="M269.985 427.357L311.832 409.144" stroke="#999999" stroke-width="0.539476" stroke-miterlimit="10"/>
<path d="M291.003 424.43C292.191 424.31 292.879 421.473 292.538 418.094C292.197 414.714 290.957 412.072 289.768 412.192C288.579 412.312 287.892 415.148 288.233 418.528C288.574 421.907 289.814 424.55 291.003 424.43Z" fill="#575E75"/>
<path d="M226.859 362.485C226.859 362.485 226.114 367.437 226.859 380.32C227.603 393.203 231.326 422.636 231.326 422.636C231.326 422.636 233.009 426.79 238.76 426.79C243.183 426.79 244.122 422.437 244.122 422.437L241.808 378.998L226.859 362.485Z" fill="#3373CC"/>
<path d="M271.422 405.71C272.377 404.973 272.554 403.601 271.816 402.645C271.079 401.69 269.707 401.513 268.752 402.251L206.356 450.406C205.401 451.143 205.224 452.515 205.961 453.471C206.698 454.426 208.07 454.603 209.026 453.865L271.422 405.71Z" fill="#2E8EB8"/>
<path d="M284.438 413.257L285.049 412.421C285.593 411.678 285.432 410.635 284.689 410.091L258.368 390.82C257.625 390.276 256.582 390.437 256.038 391.18L255.426 392.016C254.882 392.759 255.044 393.802 255.786 394.346L282.108 413.617C282.851 414.161 283.894 414 284.438 413.257Z" fill="#47A8D1"/>
<path d="M223.299 466.671C224.273 467.383 225.64 467.172 226.353 466.198C227.066 465.225 226.854 463.858 225.881 463.145L191.406 437.904C190.433 437.191 189.066 437.403 188.353 438.376C187.64 439.35 187.851 440.717 188.825 441.43L223.299 466.671Z" fill="#5CB1D6"/>
<path d="M219.251 423.159L219.863 422.323C220.407 421.58 220.246 420.537 219.503 419.993L193.182 400.722C192.439 400.178 191.396 400.339 190.852 401.082L190.24 401.918C189.696 402.661 189.857 403.704 190.6 404.248L216.922 423.519C217.665 424.063 218.708 423.902 219.251 423.159Z" fill="#47A8D1"/>
<path d="M220.825 428.216L208.793 430.044C207.942 430.174 207.356 430.967 207.485 431.817C207.614 432.667 208.409 433.251 209.26 433.122L221.293 431.293C222.144 431.164 222.73 430.37 222.601 429.521C222.471 428.671 221.677 428.087 220.825 428.216Z" fill="#5CB1D6"/>
<path d="M283.833 398.657C283.833 398.657 258.488 418.693 220.212 409.457L196.313 391.147L251.421 384.339L283.833 398.662V398.657Z" fill="#4D5466"/>
<path d="M230.139 404.99C230.139 404.99 207.195 400.879 197.144 386.545C189.149 375.141 196.314 358.433 211.187 370.615C217.591 375.858 240.071 394.26 240.071 394.26L230.139 404.99Z" fill="#3373CC"/>
<path d="M243.317 312.464C243.317 312.464 259.906 283.867 251.361 263.561C244.03 246.136 234.923 237.817 235.824 231.975C236.909 224.961 244.057 222.194 251.361 226.52C258.666 230.847 277.758 258.49 277.892 272.921C278.038 288.442 280.52 346.138 280.52 346.138" fill="#E64D00"/>
<path d="M253.492 279.119C253.492 279.119 259.971 275.537 258.547 284.859C257.117 294.181 252.176 290.184 252.176 290.184C252.176 290.184 251.259 286.224 251.453 284.73C251.625 283.414 253.492 279.119 253.492 279.119Z" fill="#E0B585"/>
<path d="M216.139 281.622C216.139 281.622 208.98 279.718 212.627 288.414C216.274 297.111 220.099 292.034 220.099 292.034C220.099 292.034 220.029 287.967 219.478 286.569C218.993 285.334 216.139 281.622 216.139 281.622Z" fill="#E0B585"/>
<path d="M224.5 298.827C224.5 298.827 226.907 308.429 228.169 313.123C229.345 317.476 252.726 312.885 252.726 310.096C252.726 307.307 248.545 294.095 248.545 294.095L224.506 293.615V298.827H224.5Z" fill="#E0B585"/>
<path d="M235.171 300.299C248.194 300.299 258.752 289.742 258.752 276.719C258.752 263.696 248.194 253.138 235.171 253.138C222.148 253.138 211.591 263.696 211.591 276.719C211.591 289.742 222.148 300.299 235.171 300.299Z" fill="black"/>
<path d="M212.783 284.126C212.783 284.126 219.953 301.367 224.242 303.865V300.299C224.242 300.299 225.04 302.214 228.471 304.712C231.902 307.215 234.184 307.215 234.184 309.066C234.184 309.066 234.945 307.215 234.184 305.041C234.184 305.041 236.466 308.629 238.101 310.047C239.735 311.466 242.017 306.131 242.017 304.388C242.017 304.388 243.539 307.107 243.431 308.413C243.323 309.718 247.347 305.91 247.455 302.646L248.108 305.473C248.108 305.473 251.809 301.119 252.025 297.969C252.025 297.969 251.75 300.197 252.726 300.914C252.726 300.914 257.053 287.519 257.856 283.165C258.66 278.812 212.789 284.126 212.789 284.126H212.783Z" fill="black"/>
<path d="M230.138 253.683C230.138 253.683 225.758 253.683 222.947 255.237C220.832 256.407 213.15 263.07 212.05 272.079C211.624 275.575 230.138 253.683 230.138 253.683Z" fill="black"/>
<path d="M230.138 253.683C230.138 253.683 231.859 251.746 235.323 252.086C238.786 252.426 243.814 254.233 248.108 257.006C252.402 259.784 230.138 253.678 230.138 253.678V253.683Z" fill="black"/>
<path d="M216.711 261.247C216.711 261.247 210.269 265.352 210.469 280.08C210.469 280.08 210.857 282.14 210.96 282.189C211.062 282.238 212.044 277.97 212.044 277.97L216.711 261.252V261.247Z" fill="black"/>
<path d="M257.053 267.925C257.053 267.925 260.748 273.676 259.739 282.664L257.053 273.217V267.925Z" fill="black"/>
<path d="M207.594 368.133C207.594 368.133 191.711 312.88 231.336 312.319C250.369 312.049 252.262 299.889 256.438 301.961C260.613 304.032 281.264 347.363 283.757 353.173C286.249 358.983 219.354 400.232 207.588 368.133H207.594Z" fill="#E64D00"/>
<path d="M286.131 329.177H281.761V444.534H286.131V329.177Z" fill="#5CB1D6"/>
<path d="M216.711 347.962C216.711 347.962 266.478 351.161 281.761 337.803V398.403C281.761 398.403 265.475 411.906 216.711 408.297V347.962Z" fill="#575E75"/>
<path d="M298.416 458.269C299.39 458.982 300.757 458.77 301.47 457.797C302.182 456.823 301.971 455.456 300.997 454.743L264.116 427.74C263.142 427.027 261.775 427.239 261.062 428.212C260.35 429.186 260.561 430.553 261.535 431.266L298.416 458.269Z" fill="#5CB1D6"/>
<path d="M271.795 438.782C272.831 439.401 274.172 439.063 274.792 438.028C275.411 436.992 275.074 435.651 274.038 435.031L220.816 403.204C219.78 402.584 218.439 402.922 217.819 403.957C217.2 404.993 217.537 406.335 218.573 406.954L271.795 438.782Z" fill="#2E8EB8"/>
<path d="M220.218 340.959H215.848V459.736H220.218V340.959Z" fill="#5CB1D6"/>
<path d="M218.682 383.031C219.655 383.744 221.022 383.532 221.735 382.559C222.448 381.585 222.237 380.218 221.263 379.505L196.099 361.082C195.126 360.369 193.759 360.58 193.046 361.554C192.333 362.527 192.544 363.894 193.518 364.607L218.682 383.031Z" fill="#5CB1D6"/>
<path d="M196.828 363.267C196.863 362.06 195.914 361.054 194.708 361.019C193.502 360.983 192.495 361.932 192.46 363.139L191.298 402.741C191.263 403.947 192.212 404.953 193.418 404.989C194.624 405.024 195.631 404.075 195.666 402.869L196.828 363.267Z" fill="#5CB1D6"/>
<path d="M209.925 375.216C211.072 376.056 212.682 375.807 213.521 374.66C214.361 373.514 214.112 371.903 212.965 371.064L199.306 361.063C198.159 360.224 196.549 360.473 195.71 361.619C194.87 362.766 195.119 364.376 196.266 365.216L209.925 375.216Z" fill="#575E75"/>
<path d="M217.24 491.955C230.076 490.66 237.846 463.481 234.595 431.249C231.344 399.017 218.302 373.938 205.466 375.233C192.631 376.527 184.861 403.706 188.112 435.938C191.363 468.17 204.404 493.249 217.24 491.955Z" stroke="#999999" stroke-width="8.09214" stroke-miterlimit="10"/>
<path d="M199.848 379.543L218.843 487.498" stroke="#999999" stroke-width="0.539476" stroke-miterlimit="10"/>
<path d="M192.657 459.876L225.171 403.344" stroke="#999999" stroke-width="0.539476" stroke-miterlimit="10"/>
<path d="M209.343 379.543L208.755 485.404" stroke="#999999" stroke-width="0.539476" stroke-miterlimit="10"/>
<path d="M219.722 386.837L198.898 471.885" stroke="#999999" stroke-width="0.539476" stroke-miterlimit="10"/>
<path d="M192.657 389.825L226.692 478.359" stroke="#999999" stroke-width="0.539476" stroke-miterlimit="10"/>
<path d="M190.137 407.267L230.468 459.876" stroke="#999999" stroke-width="0.539476" stroke-miterlimit="10"/>
<path d="M187.445 425.145L231.833 438.308" stroke="#999999" stroke-width="0.539476" stroke-miterlimit="10"/>
<path d="M188.622 440.115L230.469 421.897" stroke="#999999" stroke-width="0.539476" stroke-miterlimit="10"/>
<path d="M209.63 437.182C210.819 437.062 211.507 434.225 211.166 430.846C210.825 427.466 209.585 424.824 208.396 424.944C207.207 425.064 206.52 427.901 206.861 431.28C207.202 434.66 208.442 437.302 209.63 437.182Z" fill="#575E75"/>
<path d="M216.115 480.755C224.116 479.948 228.508 458.531 225.924 432.919C223.341 407.306 214.76 387.197 206.759 388.005C198.758 388.812 194.367 410.229 196.95 435.841C199.534 461.454 208.114 481.562 216.115 480.755Z" stroke="#CCCCCC" stroke-width="4.31581" stroke-miterlimit="10"/>
<path d="M289.242 417.215L279.94 418.629C279.089 418.758 278.504 419.552 278.633 420.402C278.762 421.251 279.557 421.835 280.408 421.706L289.71 420.293C290.561 420.163 291.146 419.37 291.017 418.52C290.888 417.67 290.093 417.086 289.242 417.215Z" fill="#5CB1D6"/>
<path d="M233.521 336.433H219.786C217.611 336.433 215.848 338.197 215.848 340.372V340.63C215.848 342.805 217.611 344.569 219.786 344.569H233.521C235.696 344.569 237.46 342.805 237.46 340.63V340.372C237.46 338.197 235.696 336.433 233.521 336.433Z" fill="#47A8D1"/>
<path d="M232.814 342.902C234.578 342.902 236.008 341.824 236.008 340.496C236.008 339.167 234.578 338.09 232.814 338.09C231.05 338.09 229.621 339.167 229.621 340.496C229.621 341.824 231.05 342.902 232.814 342.902Z" fill="#2E8EB8"/>
<path d="M299.089 325.423H285.699C283.524 325.423 281.761 327.186 281.761 329.361V329.62C281.761 331.795 283.524 333.558 285.699 333.558H299.089C301.264 333.558 303.027 331.795 303.027 329.62V329.361C303.027 327.186 301.264 325.423 299.089 325.423Z" fill="#47A8D1"/>
<path d="M298.463 331.891C300.201 331.891 301.609 330.814 301.609 329.485C301.609 328.156 300.201 327.079 298.463 327.079C296.726 327.079 295.318 328.156 295.318 329.485C295.318 330.814 296.726 331.891 298.463 331.891Z" fill="#2E8EB8"/>
<path d="M237.528 208.368C238.543 207.984 239.054 206.851 238.67 205.837C238.286 204.822 237.152 204.311 236.138 204.695L219.12 211.136C218.105 211.52 217.594 212.653 217.978 213.668C218.362 214.682 219.495 215.193 220.51 214.809L237.528 208.368Z" fill="#FF6680"/>
<path d="M237.211 207.892C238.045 207.892 238.722 207.216 238.722 206.382C238.722 205.547 238.045 204.871 237.211 204.871C236.377 204.871 235.701 205.547 235.701 206.382C235.701 207.216 236.377 207.892 237.211 207.892Z" fill="#FF4D6A"/>
<path fill-rule="evenodd" clip-rule="evenodd" d="M87.4466 129.618C87.425 129.648 87.4036 129.679 87.3823 129.71C81.6993 138.091 73.1859 139.908 73.9867 136.105C74.5511 133.423 75.0036 131.052 74.5146 129.618H72.1268C66.5336 129.618 62 125.114 62 119.559C62 114.004 66.5336 109.5 72.1268 109.5H120.19C125.783 109.5 130.317 114.004 130.317 119.559C130.317 125.114 125.783 129.618 120.19 129.618H87.4466Z" fill="white" fill-opacity="0.5"/>
<path fill-rule="evenodd" clip-rule="evenodd" d="M149.485 101.118C148.996 102.552 149.449 104.923 150.013 107.605C150.814 111.408 142.301 109.591 136.618 101.21C136.596 101.179 136.575 101.148 136.553 101.118H103.81C98.2172 101.118 93.6831 96.6142 93.6831 91.059C93.6831 85.5035 98.2172 81 103.81 81H151.873C157.466 81 162 85.5035 162 91.059C162 96.6142 157.466 101.118 151.873 101.118H149.485Z" fill="white" fill-opacity="0.5"/>
<path d="M330.133 165.357C327.101 164.985 325.73 160.396 331.83 176.431C331.838 176.491 331.846 176.55 331.915 176.601C332.516 178.272 331.003 179.929 328.625 180.254C326.185 180.587 323.735 179.47 323.134 177.799C322.534 176.127 324.047 174.47 326.425 174.146C326.913 174.079 327.47 174.064 327.974 174.116C328.226 174.142 328.478 174.168 328.738 174.253C329.409 174.162 328.373 172.489 325.995 165.075C323.001 155.871 328.24 163.318 332.655 161.991C337.018 160.731 333.157 165.67 330.133 165.357Z" fill="white" fill-opacity="0.5"/>
<path d="M346.649 157.119C343.617 156.747 342.246 152.158 348.346 168.193C348.354 168.252 348.362 168.312 348.431 168.363C349.032 170.034 347.519 171.691 345.141 172.016C342.702 172.348 340.251 171.232 339.651 169.56C339.05 167.889 340.563 166.232 342.941 165.907C343.429 165.841 343.986 165.825 344.49 165.878C344.742 165.904 344.994 165.93 345.254 166.015C345.925 165.924 344.889 164.251 342.511 156.837C339.517 147.633 344.757 155.08 349.18 153.812C353.534 152.493 349.674 157.432 346.649 157.119Z" fill="white" fill-opacity="0.5"/>
</g>
<defs>
<clipPath id="clip0_365_12169">
<rect width="453" height="506" fill="white"/>
</clipPath>
<clipPath id="clip1_365_12169">
<rect width="73.1907" height="67.314" fill="white" transform="translate(284.815 191) rotate(23.4759)"/>
</clipPath>
<clipPath id="clip2_365_12169">
<rect width="11.1152" height="10.2227" fill="white" transform="matrix(-0.966514 0.256614 0.256614 0.966514 378.743 255)"/>
</clipPath>
</defs>
</svg>
